<?xml version="1.0" encoding="utf-8"?>
<!-- Generator: Adobe Illustrator 27.5.0, SVG Export Plug-In . SVG Version: 6.00 Build 0)  -->
<svg version="1.1" xmlns="http://www.w3.org/2000/svg" xmlns:xlink="http://www.w3.org/1999/xlink" x="0px" y="0px"
	 viewBox="0 0 500 500" style="enable-background:new 0 0 500 500;" xml:space="preserve">
<g id="Background_Simple">
	<g>
		<g>
			<g>
				<path style="fill:#FFE6DE;" d="M262.556,54.693c-42.999,4.782-85.816,15.769-123.858,35.97
					c-38.042,20.201-71.143,50.019-90.514,86.781c-21.311,40.442-25.058,86.872-20.975,131.204
					c3.185,34.575,11.519,69.955,34.184,96.857c24.496,29.075,63.483,45.003,103.037,49.719
					c39.555,4.717,79.986-0.749,119.428-8.244c47.382-9.003,95.883-21.729,133.646-50.72
					c42.622-32.722,66.993-84.165,68.933-135.167c1.94-51.002-13.662-94.378-45.512-134.797
					c-18.529-23.515-48.245-40.702-76.158-53.816C336.854,59.366,293.022,51.264,262.556,54.693"/>
			</g>
		</g>
		<g>
			<g>
				<g>
					<path style="fill:#FFFFFF;" d="M174.506,253.44c-1.136-0.48-50.463,6.473-49.902,9.626c0.299,1.68,7.408,35.404,11.13,36.835
						c3.721,1.432,47.399-9.624,48.388-10.791C185.112,287.943,176.746,254.386,174.506,253.44z"/>
				</g>
			</g>
			<g>
				<g>
					<g>
						<path style="fill:#FFE6DE;" d="M125.293,263.477c7.387,5.976,15.334,11.605,23.787,15.982c1.926,0.997,4.006,1.792,6.21,1.505
							c1.855-0.241,3.571-1.133,4.977-2.344c1.611-1.388,2.929-3.222,4.153-4.949c1.327-1.872,2.515-3.838,3.617-5.849
							c2.462-4.495,4.514-9.2,6.918-13.726c0.357-0.672-0.663-1.27-1.021-0.597c-3.928,7.394-6.962,15.382-12.32,21.921
							c-1.393,1.7-2.89,3.281-5.019,4.025c-2.346,0.819-4.592,0.178-6.729-0.911c-3.896-1.984-7.636-4.366-11.282-6.772
							c-4.297-2.836-8.45-5.883-12.453-9.121C125.543,262.166,124.701,262.998,125.293,263.477L125.293,263.477z"/>
					</g>
				</g>
			</g>
			<g>
				<g>
					<g>
						<path style="fill:#FFE6DE;" d="M146.608,277.365c-4.527,6.9-8.616,14.075-12.245,21.486c-0.333,0.681,0.686,1.281,1.021,0.597
							c3.629-7.411,7.718-14.586,12.245-21.486C148.048,277.324,147.025,276.73,146.608,277.365L146.608,277.365z"/>
					</g>
				</g>
			</g>
			<g>
				<g>
					<g>
						<path style="fill:#FFE6DE;" d="M163.147,275.63c7.024,3.953,13.773,8.374,20.202,13.236c0.607,0.459,1.197-0.568,0.597-1.021
							c-6.43-4.861-13.178-9.283-20.203-13.236C163.08,274.235,162.483,275.256,163.147,275.63L163.147,275.63z"/>
					</g>
				</g>
			</g>
		</g>
		<g>
			<g>
				<g>
					<g>
						<path style="fill:#FFE6DE;" d="M222.033,132.713c-11.661,1.637-42.685,14.734-42.08,19.995
							c0.609,5.3,13.232,36.559,17.891,39.543c4.659,2.984,43.969-14.905,44.636-19.317
							C243.146,168.523,226.25,132.121,222.033,132.713z"/>
					</g>
				</g>
				<g>
					<g>
						<path style="fill:#FFFFFF;" d="M225.06,146.483c0.031,4.707-3.759,8.548-8.466,8.579c-4.707,0.031-8.548-3.759-8.579-8.466
							c-0.031-4.707,3.759-8.548,8.466-8.579C221.187,137.986,225.028,141.776,225.06,146.483z"/>
					</g>
				</g>
				<g>
					<g>
						<path style="fill:#FFFFFF;" d="M242.48,172.934c0.282-1.868-2.586-9.474-6.306-17.578c-6.092-1.327-12.935,0.694-17.063,5.421
							c-1.56,1.787-3.039,4.068-5.393,4.36c-1.815,0.225-3.498-0.845-5.147-1.637c-4.508-2.163-9.916-2.367-14.574-0.549
							c-3.308,1.291-6.2,3.591-8.264,6.477c4.143,10.087,9.438,21.11,12.111,22.822C202.503,195.235,241.813,177.346,242.48,172.934
							z"/>
					</g>
				</g>
			</g>
			<g>
				<g>
					<g>
						<path style="fill:#FFFFFF;" d="M221.632,131.296c-8.219,1.268-16.276,4.544-23.858,7.844
							c-5.655,2.461-14.888,5.6-18.441,11.116c-2.488,3.862,1.544,10.808,2.953,14.48c3.012,7.845,6.261,15.793,10.454,23.091
							c2.376,4.136,4.14,6.783,9.158,5.985c6.743-1.072,13.349-4.046,19.558-6.759c6.624-2.895,13.762-5.944,19.533-10.382
							c3.603-2.771,3.145-5.025,1.773-9.121c-2.729-8.153-6.56-16.087-10.62-23.647c-1.68-3.128-5.543-12.663-10.119-12.662
							c-1.896,0.001-1.878,2.947,0.02,2.946c2.533-0.001,7.004,10.152,8.026,12.085c3.163,5.979,6.062,12.14,8.52,18.443
							c1.24,3.18,3.798,7.054,0.896,9.423c-4.544,3.71-10.46,6.23-15.736,8.674c-6.02,2.789-12.225,5.42-18.621,7.226
							c-1.604,0.453-4.402,1.594-6.082,1.062c-1.566-0.496-2.577-2.748-3.365-4.072c-3.78-6.354-6.675-13.32-9.413-20.169
							c-1.085-2.716-2.134-5.45-3.088-8.215c-0.491-1.425-2.131-4.613-1.737-6.192c0.529-2.124,4.525-4.001,6.201-4.994
							c3.949-2.34,8.146-4.297,12.364-6.096c7.139-3.044,14.715-6.039,22.425-7.228
							C224.301,133.843,223.488,131.009,221.632,131.296z"/>
					</g>
				</g>
			</g>
		</g>
		<g>
			<g>
				<g>
					<g>
						<path style="fill:#FFE6DE;" d="M426.644,125.163c-8.507-3.979-34.943-8.72-36.827-4.94
							c-1.898,3.808-7.059,30.194-5.243,34.216c1.816,4.021,35.876,9.164,38.241,6.505
							C425.179,158.285,429.72,126.601,426.644,125.163z"/>
					</g>
				</g>
				<g>
					<g>
						<path style="fill:#FFFFFF;" d="M422.677,135.684c-2.027,3.16-6.232,4.079-9.392,2.052c-3.16-2.027-4.079-6.231-2.052-9.392
							c2.027-3.16,6.231-4.079,9.392-2.052C423.785,128.319,424.703,132.523,422.677,135.684z"/>
					</g>
				</g>
				<g>
					<g>
						<path style="fill:#FFFFFF;" d="M422.814,160.944c1.001-1.126,2.393-7.458,3.431-14.493c-3.495-3.537-8.949-5.163-13.764-3.799
							c-1.82,0.516-3.801,1.397-5.502,0.568c-1.311-0.639-1.971-2.087-2.729-3.333c-2.073-3.407-5.599-5.896-9.503-6.707
							c-2.773-0.577-5.707-0.297-8.342,0.735c-1.618,8.545-2.875,18.217-1.832,20.525C386.39,158.46,420.45,163.603,422.814,160.944
							z"/>
					</g>
				</g>
			</g>
			<g>
				<g>
					<g>
						<path style="fill:#FFFFFF;" d="M426.993,124.04c-6.045-2.728-12.857-4.043-19.36-5.135
							c-4.851-0.815-12.388-2.733-17.163-0.591c-3.343,1.5-3.67,7.896-4.325,10.964c-1.399,6.554-2.685,13.281-3.057,19.983
							c-0.211,3.798-0.184,6.336,3.518,7.985c4.974,2.216,10.684,3.103,16.014,3.99c5.688,0.946,11.785,2.014,17.574,1.557
							c3.614-0.285,4.288-1.991,5.153-5.326c1.723-6.637,2.613-13.607,3.188-20.428c0.238-2.821,1.804-10.876-1.256-12.866
							c-1.268-0.825-2.538,1.152-1.268,1.978c1.693,1.101,0.266,9.833,0.108,11.57c-0.487,5.373-1.229,10.752-2.328,16.035
							c-0.554,2.665-0.53,6.367-3.5,6.689c-4.651,0.503-9.702-0.386-14.292-1.047c-5.237-0.755-10.53-1.695-15.591-3.271
							c-1.27-0.395-3.636-0.85-4.527-1.936c-0.831-1.013-0.527-2.958-0.478-4.186c0.237-5.892,1.333-11.808,2.482-17.577
							c0.456-2.288,0.944-4.571,1.51-6.834c0.292-1.166,0.582-4.011,1.532-4.895c1.278-1.189,4.765-0.706,6.318-0.641
							c3.658,0.154,7.314,0.671,10.917,1.304c6.096,1.07,12.464,2.365,18.135,4.924C427.668,126.904,428.358,124.656,426.993,124.04
							z"/>
					</g>
				</g>
			</g>
		</g>
		<g>
			<g>
				<path style="fill:#FFFFFF;" d="M106.887,311.711c-2.155-0.336-8.926,0.268-8.926,0.268l-1.523-1.932c0,0,4.554-7.682,3.44-9.156
					c-1.114-1.474-9.115-6.154-10.451-5.576c-1.336,0.578-5.343,6.226-5.343,6.226l-2.805-0.372c0,0-1.092-7.776-4.252-7.625
					c-3.16,0.152-9.359,2.2-10.599,3.001c-1.24,0.801,0.623,8.402,0.623,8.402l-2.046,1.637l-0.88-0.422
					c0,0-6.077-3.798-7.813-2.496c-1.736,1.302-5.86,9.766-5.534,10.851c0.326,1.085,6.664,5.643,6.664,5.643l-0.479,2.17
					c0,0-7.162,2.17-7.487,4.232c-0.326,2.062,0.976,10.526,3.147,10.743c2.17,0.217,8.898-0.76,8.898-0.76l1.628,1.845
					c0,0-4.124,7.921-2.93,9.332c1.194,1.411,9.44,5.643,10.743,4.992c1.302-0.651,4.992-6.511,4.992-6.511l2.821,0.217
					c0,0,1.519,7.704,4.666,7.379c3.147-0.325,9.224-2.713,10.417-3.581c1.194-0.868-1.085-8.355-1.085-8.355l2.062-1.845
					c0,0,6.077,3.689,8.355,2.17c2.279-1.519,5.968-8.681,5.426-9.766c-0.543-1.085-6.077-5.643-6.077-5.643l0.029-0.579
					c1.924-0.537,6.525-1.98,6.871-3.59C109.876,320.57,109.042,312.047,106.887,311.711z M79.488,333.27
					c-5.415,0-9.805-4.39-9.805-9.805c0-5.415,4.39-9.805,9.805-9.805c5.415,0,9.804,4.39,9.804,9.805
					C89.293,328.88,84.903,333.27,79.488,333.27z"/>
			</g>
		</g>
		<g>
			<g>
				<path style="fill:#FFFFFF;" d="M200.624,395.483c-1.615-0.252-6.692,0.201-6.692,0.201l-1.142-1.448
					c0,0,3.414-5.759,2.579-6.864c-0.835-1.105-6.833-4.614-7.835-4.18c-1.002,0.434-4.005,4.667-4.005,4.667l-2.103-0.279
					c0,0-0.819-5.83-3.188-5.716c-2.369,0.114-7.016,1.65-7.945,2.25c-0.929,0.6,0.467,6.299,0.467,6.299l-1.534,1.227l-0.66-0.316
					c0,0-4.556-2.847-5.857-1.871c-1.302,0.976-4.393,7.321-4.149,8.135c0.244,0.813,4.996,4.23,4.996,4.23l-0.359,1.627
					c0,0-5.369,1.627-5.613,3.173c-0.244,1.546,0.732,7.891,2.359,8.053c1.627,0.163,6.671-0.569,6.671-0.569l1.22,1.383
					c0,0-3.091,5.938-2.196,6.996c0.895,1.058,7.077,4.23,8.053,3.742c0.976-0.488,3.742-4.881,3.742-4.881l2.115,0.163
					c0,0,1.139,5.776,3.498,5.532c2.359-0.244,6.915-2.034,7.809-2.685c0.895-0.651-0.813-6.264-0.813-6.264l1.546-1.383
					c0,0,4.555,2.766,6.264,1.627c1.708-1.139,4.474-6.508,4.068-7.321c-0.407-0.813-4.556-4.23-4.556-4.23l0.022-0.434
					c1.442-0.402,4.891-1.484,5.151-2.692C202.865,402.125,202.24,395.735,200.624,395.483z M180.084,411.645
					c-4.059,0-7.35-3.291-7.35-7.35c0-4.059,3.291-7.35,7.35-7.35c4.059,0,7.35,3.291,7.35,7.35
					C187.434,408.355,184.143,411.645,180.084,411.645z"/>
			</g>
		</g>
		<g>
			<g>
				<path style="fill:#FFFFFF;" d="M342.467,85.277c-1.319-0.206-5.462,0.164-5.462,0.164l-0.932-1.182c0,0,2.786-4.7,2.105-5.602
					c-0.682-0.902-5.577-3.766-6.395-3.412c-0.817,0.354-3.269,3.809-3.269,3.809l-1.716-0.228c0,0-0.668-4.758-2.602-4.665
					c-1.934,0.093-5.727,1.346-6.485,1.837c-0.759,0.49,0.381,5.141,0.381,5.141l-1.252,1.002l-0.539-0.258
					c0,0-3.718-2.324-4.781-1.527c-1.062,0.797-3.585,5.976-3.386,6.64c0.199,0.664,4.078,3.453,4.078,3.453l-0.293,1.328
					c0,0-4.382,1.328-4.581,2.589c-0.199,1.262,0.598,6.44,1.925,6.573c1.328,0.133,5.445-0.465,5.445-0.465l0.996,1.129
					c0,0-2.523,4.847-1.793,5.71c0.73,0.863,5.776,3.453,6.573,3.054c0.797-0.399,3.054-3.984,3.054-3.984l1.726,0.133
					c0,0,0.93,4.714,2.855,4.515c1.926-0.199,5.644-1.66,6.374-2.191c0.73-0.531-0.664-5.113-0.664-5.113l1.261-1.129
					c0,0,3.718,2.257,5.112,1.328c1.394-0.93,3.652-5.312,3.32-5.976c-0.332-0.664-3.718-3.453-3.718-3.453l0.018-0.354
					c1.177-0.328,3.992-1.211,4.204-2.197C344.295,90.698,343.785,85.483,342.467,85.277z M325.702,98.469
					c-3.313,0-5.999-2.686-5.999-5.999c0-3.313,2.686-5.999,5.999-5.999c3.313,0,5.999,2.686,5.999,5.999
					C331.701,95.783,329.015,98.469,325.702,98.469z"/>
			</g>
		</g>
		<g>
			<g>
				<path style="fill:#FFFFFF;" d="M343.984,253.505c-1.615-0.252-6.692,0.201-6.692,0.201l-1.142-1.448
					c0,0,3.414-5.759,2.579-6.864c-0.835-1.105-6.833-4.614-7.835-4.18c-1.002,0.434-4.005,4.667-4.005,4.667l-2.103-0.279
					c0,0-0.819-5.83-3.188-5.716c-2.369,0.114-7.016,1.65-7.945,2.25c-0.929,0.6,0.467,6.299,0.467,6.299l-1.534,1.227l-0.66-0.316
					c0,0-4.556-2.847-5.857-1.871c-1.302,0.976-4.393,7.321-4.149,8.135c0.244,0.813,4.996,4.23,4.996,4.23l-0.359,1.627
					c0,0-5.369,1.627-5.613,3.173c-0.244,1.546,0.732,7.891,2.359,8.053c1.627,0.163,6.671-0.569,6.671-0.569l1.22,1.383
					c0,0-3.091,5.938-2.196,6.996c0.895,1.058,7.077,4.23,8.053,3.742c0.976-0.488,3.742-4.881,3.742-4.881l2.115,0.163
					c0,0,1.139,5.776,3.498,5.532c2.359-0.244,6.915-2.034,7.809-2.685c0.895-0.651-0.814-6.264-0.814-6.264l1.546-1.383
					c0,0,4.556,2.766,6.264,1.627c1.708-1.139,4.474-6.508,4.068-7.321c-0.407-0.813-4.556-4.23-4.556-4.23l0.022-0.434
					c1.442-0.402,4.891-1.484,5.151-2.692C346.224,260.146,345.599,253.757,343.984,253.505z M323.443,269.667
					c-4.059,0-7.35-3.291-7.35-7.35c0-4.059,3.291-7.35,7.35-7.35c4.059,0,7.35,3.291,7.35,7.35
					C330.793,266.376,327.503,269.667,323.443,269.667z"/>
			</g>
		</g>
		<g>
			<g>
				<path style="fill:#FFFFFF;" d="M402.406,279.859c-0.635,0.979-20.122,32.779-18.04,38.426
					c2.082,5.647,41.583,25.727,43.669,22.387c2.086-3.34,18.476-31.112,17.516-37.41
					C444.592,296.964,404.054,277.319,402.406,279.859z"/>
			</g>
			<g>
				<path style="fill:#FFE6DE;" d="M397.322,313.043c-0.251,0.264-0.516,0.415-0.8,0.454c-0.285,0.037-0.583-0.022-0.893-0.182
					c-0.347-0.177-0.593-0.437-0.741-0.776c-0.149-0.341-0.138-0.676,0.031-1.004c0.046-0.09,0.122-0.196,0.23-0.313
					c0.106-0.119,0.312-0.318,0.618-0.599c1.432-1.268,2.904-2.512,4.415-3.729c1.509-1.218,3.051-2.425,4.619-3.623
					c1.57-1.199,3.156-2.393,4.758-3.588c1.601-1.193,3.201-2.405,4.8-3.635c0.231-0.181,0.48-0.276,0.752-0.287
					c0.27-0.012,0.523,0.043,0.761,0.165c0.31,0.159,0.546,0.384,0.708,0.674c0.162,0.291,0.219,0.596,0.168,0.916
					c-0.021,0.264-0.078,0.874-0.174,1.826c-0.098,0.952-0.222,2.114-0.373,3.487c-0.152,1.374-0.308,2.858-0.471,4.456
					c-0.162,1.596-0.326,3.195-0.488,4.791c-0.163,1.597-0.306,3.09-0.43,4.476c-0.123,1.387-0.228,2.543-0.309,3.468
					c-0.002,0.229-0.017,0.481-0.042,0.755c-0.026,0.275-0.077,0.485-0.152,0.631c-0.206,0.402-0.489,0.653-0.851,0.755
					c-0.364,0.101-0.7,0.073-1.01-0.087c-0.183-0.092-0.376-0.244-0.58-0.451c-0.205-0.209-0.296-0.469-0.273-0.779
					c0.135-1.795,0.311-3.674,0.523-5.637c0.211-1.964,0.431-3.907,0.656-5.829c0.226-1.921,0.432-3.716,0.618-5.381
					c0.186-1.666,0.346-3.098,0.477-4.297c-1.912,1.529-3.814,3.024-5.7,4.485c-1.889,1.461-3.743,2.922-5.563,4.384
					C400.784,310.031,399.024,311.522,397.322,313.043z M401.954,306.164c0.121-0.237,0.303-0.391,0.548-0.461
					c0.242-0.072,0.501-0.094,0.777-0.068c0.274,0.026,0.521,0.072,0.741,0.138c0.446,0.115,1.043,0.323,1.787,0.623
					s1.594,0.685,2.551,1.153c0.959,0.469,1.978,1.014,3.064,1.639c0.336,0.195,0.689,0.382,1.058,0.56
					c0.371,0.178,0.729,0.345,1.074,0.499c0.347,0.154,0.669,0.291,0.964,0.409c0.297,0.118,0.555,0.209,0.775,0.275
					c0.412,0.142,0.669,0.401,0.775,0.777c0.107,0.378,0.07,0.739-0.107,1.086c-0.16,0.31-0.382,0.506-0.666,0.591
					s-0.605,0.092-0.962,0.024c-0.357-0.067-0.71-0.174-1.062-0.32c-0.351-0.145-0.673-0.293-0.964-0.441
					c-1.039-0.533-2.098-1.071-3.178-1.613c-1.081-0.542-2.16-1.056-3.236-1.538c-1.076-0.482-2.158-0.921-3.244-1.318
					c-0.283-0.122-0.513-0.401-0.693-0.839C401.777,306.902,401.777,306.511,401.954,306.164z"/>
				<path style="fill:#FFE6DE;" d="M428.51,304.548c0.215-0.373,0.496-0.587,0.845-0.637c0.35-0.052,0.678,0.002,0.989,0.161
					c0.346,0.178,0.6,0.424,0.763,0.737c0.161,0.314,0.13,0.666-0.094,1.058c-1.929,3.041-3.794,6.119-5.598,9.234
					c-1.804,3.116-3.567,6.26-5.284,9.43c-0.196,0.383-0.473,0.599-0.83,0.645c-0.358,0.046-0.693-0.009-1.002-0.168
					c-0.328-0.168-0.574-0.408-0.735-0.722c-0.161-0.313-0.14-0.669,0.066-1.071c1.709-3.153,3.468-6.292,5.277-9.417
					C424.715,310.672,426.583,307.59,428.51,304.548z"/>
			</g>
			<g>
				<g>
					<path style="fill:#FFFFFF;" d="M380.91,304.684c2.707,1.388,5.413,2.775,8.12,4.163c0.806,0.413,1.519-0.802,0.711-1.217
						c-2.707-1.387-5.413-2.775-8.12-4.163C380.816,303.055,380.102,304.27,380.91,304.684L380.91,304.684z"/>
				</g>
			</g>
			<g>
				<g>
					<path style="fill:#FFFFFF;" d="M383.973,298.709c2.707,1.387,5.413,2.775,8.12,4.163c0.805,0.413,1.519-0.803,0.711-1.217
						c-2.707-1.388-5.413-2.775-8.12-4.163C383.879,297.08,383.165,298.295,383.973,298.709L383.973,298.709z"/>
				</g>
			</g>
			<g>
				<g>
					<path style="fill:#FFFFFF;" d="M387.036,292.734c2.707,1.387,5.413,2.775,8.12,4.163c0.806,0.413,1.519-0.802,0.711-1.217
						c-2.707-1.388-5.413-2.775-8.12-4.163C386.942,291.105,386.228,292.32,387.036,292.734L387.036,292.734z"/>
				</g>
			</g>
			<g>
				<g>
					<path style="fill:#FFFFFF;" d="M390.099,286.759c2.707,1.388,5.413,2.775,8.12,4.163c0.806,0.413,1.519-0.802,0.711-1.217
						c-2.707-1.388-5.413-2.775-8.12-4.163C390.005,285.13,389.291,286.345,390.099,286.759L390.099,286.759z"/>
				</g>
			</g>
			<g>
				<g>
					<path style="fill:#FFFFFF;" d="M431.869,330.808c2.707,1.388,5.413,2.775,8.12,4.163c0.805,0.413,1.519-0.802,0.711-1.217
						c-2.707-1.387-5.413-2.775-8.12-4.163C431.775,329.179,431.061,330.394,431.869,330.808L431.869,330.808z"/>
				</g>
			</g>
			<g>
				<g>
					<path style="fill:#FFFFFF;" d="M434.932,324.833c2.707,1.387,5.413,2.775,8.12,4.163c0.805,0.413,1.519-0.803,0.711-1.217
						c-2.707-1.388-5.413-2.775-8.12-4.163C434.838,323.204,434.124,324.419,434.932,324.833L434.932,324.833z"/>
				</g>
			</g>
			<g>
				<g>
					<path style="fill:#FFFFFF;" d="M437.995,318.858c2.707,1.387,5.413,2.775,8.12,4.163c0.806,0.413,1.519-0.802,0.711-1.217
						c-2.707-1.388-5.413-2.775-8.12-4.163C437.901,317.229,437.187,318.444,437.995,318.858L437.995,318.858z"/>
				</g>
			</g>
			<g>
				<g>
					<path style="fill:#FFFFFF;" d="M441.058,312.883c2.707,1.388,5.413,2.775,8.12,4.163c0.805,0.413,1.519-0.802,0.711-1.217
						c-2.707-1.388-5.413-2.775-8.12-4.163C440.964,311.254,440.25,312.469,441.058,312.883L441.058,312.883z"/>
				</g>
			</g>
			<g>
				<g>
					<path style="fill:#FFFFFF;" d="M418.755,344.456c1.388-2.707,2.775-5.413,4.163-8.12c0.413-0.806-0.803-1.519-1.217-0.711
						c-1.388,2.707-2.775,5.413-4.163,8.12C417.125,344.551,418.341,345.264,418.755,344.456L418.755,344.456z"/>
				</g>
			</g>
			<g>
				<g>
					<path style="fill:#FFFFFF;" d="M394.686,332.117c1.387-2.707,2.775-5.413,4.163-8.12c0.413-0.806-0.803-1.519-1.217-0.711
						c-1.388,2.707-2.775,5.413-4.163,8.12C393.057,332.212,394.272,332.926,394.686,332.117L394.686,332.117z"/>
				</g>
			</g>
			<g>
				<g>
					<path style="fill:#FFFFFF;" d="M412.78,341.393c1.388-2.707,2.775-5.413,4.163-8.12c0.413-0.805-0.802-1.519-1.217-0.711
						c-1.388,2.707-2.775,5.413-4.163,8.12C411.15,341.487,412.366,342.201,412.78,341.393L412.78,341.393z"/>
				</g>
			</g>
			<g>
				<g>
					<path style="fill:#FFFFFF;" d="M406.805,338.33c1.388-2.707,2.775-5.413,4.163-8.12c0.413-0.806-0.802-1.519-1.217-0.711
						c-1.388,2.707-2.775,5.413-4.163,8.12C405.175,338.424,406.391,339.138,406.805,338.33L406.805,338.33z"/>
				</g>
			</g>
			<g>
				<g>
					<path style="fill:#FFFFFF;" d="M400.83,335.267c1.387-2.707,2.775-5.413,4.163-8.12c0.413-0.805-0.803-1.519-1.217-0.711
						c-1.388,2.707-2.775,5.413-4.163,8.12C399.2,335.361,400.416,336.075,400.83,335.267L400.83,335.267z"/>
				</g>
			</g>
			<g>
				<g>
					<path style="fill:#FFFFFF;" d="M428.319,293.224c1.23-2.4,2.461-4.8,3.691-7.201c0.413-0.806-0.802-1.519-1.217-0.711
						c-1.23,2.4-2.461,4.8-3.691,7.201C426.689,293.318,427.905,294.032,428.319,293.224L428.319,293.224z"/>
				</g>
			</g>
			<g>
				<g>
					<path style="fill:#FFFFFF;" d="M434.566,296.427c1.23-2.4,2.461-4.801,3.691-7.201c0.413-0.806-0.802-1.519-1.217-0.711
						c-1.23,2.4-2.461,4.8-3.691,7.201C432.937,296.521,434.152,297.235,434.566,296.427L434.566,296.427z"/>
				</g>
			</g>
			<g>
				<g>
					<path style="fill:#FFFFFF;" d="M421.517,289.737c1.23-2.4,2.461-4.8,3.691-7.201c0.413-0.806-0.803-1.519-1.217-0.711
						c-1.23,2.4-2.461,4.801-3.691,7.201C419.887,289.831,421.102,290.545,421.517,289.737L421.517,289.737z"/>
				</g>
			</g>
		</g>
		<g>
			<g>
				<path style="fill:#FFFFFF;" d="M164.32,217.543c-4.965,9.686-17.638,12.743-27.325,7.778
					c-9.686-4.965-12.991-17.154-8.026-26.84c4.965-9.686,16.641-12.312,26.327-7.347
					C164.982,196.099,169.285,207.857,164.32,217.543z"/>
			</g>
			<g>
				<path style="fill:#FFE6DE;" d="M130.267,212.718c-0.047,8.394,9.683,14.112,21.678,11.667c1.589-0.324,3.112-9.112-4.833-12.995
					C142.883,209.323,134.851,207.005,130.267,212.718z"/>
			</g>
			<g>
				<path style="fill:#FFE6DE;" d="M157.28,205.857c-3.515,5.671-8.415,4.854-12.867,2.572c-4.451-2.282-4.965-6.6-2.89-10.649
					c2.076-4.049,7.003-5.668,11.455-3.386C157.429,196.676,159.677,201.99,157.28,205.857z"/>
			</g>
		</g>
		<g>
			<g>
				<path style="fill:#FFFFFF;" d="M464.252,260.759c-4.965,9.686-17.638,12.743-27.325,7.778
					c-9.686-4.965-12.991-17.154-8.026-26.84c4.965-9.686,16.641-12.312,26.327-7.347
					C464.915,239.315,469.217,251.073,464.252,260.759z"/>
			</g>
			<g>
				<path style="fill:#FFE6DE;" d="M430.199,255.934c-0.047,8.393,9.683,14.112,21.678,11.667c1.589-0.324,3.112-9.112-4.833-12.995
					C442.815,252.539,434.784,250.221,430.199,255.934z"/>
			</g>
			<g>
				<path style="fill:#FFE6DE;" d="M457.212,249.073c-3.515,5.671-8.415,4.854-12.867,2.572c-4.451-2.282-4.965-6.6-2.89-10.649
					c2.076-4.049,7.003-5.668,11.455-3.386C457.362,239.892,459.609,245.205,457.212,249.073z"/>
			</g>
		</g>
		<g>
			<path style="fill:#FFFFFF;" d="M117.591,149.522c0,0,10.679-15.873-4.017-22.653c0,0,9.529,2.713,13.946-3.756
				c4.417-6.469,5.129-13.745,5.129-13.745s3.597,11.813,11.446,12.695c10.788,1.211,15.048-2.944,15.048-2.944
				s-3.353,8.54-1.09,14.994c2.262,6.454,9.076,7.343,9.076,7.343s-12.391-0.767-16.872,6.363
				c-4.482,7.13-4.134,14.955-4.134,14.955s-2.891-11.413-14.909-13.701C119.194,146.785,117.591,149.522,117.591,149.522z"/>
		</g>
		<g>
			<path style="fill:#FFFFFF;" d="M450.261,203.029c-1.297-1.013-2.642-2.411-3.098-2.941c-0.456-0.53-0.791-1.661-1.183-4.056
				c-0.391-2.384-1.694-9.014-9.819-8.361l-0.1,0.012c-8.041,1.336-7.698,8.084-7.499,10.492c0.2,2.418,0.15,3.597-0.164,4.222
				c-0.314,0.625-1.28,2.307-2.292,3.604c-0.365,0.467-0.519,0.895-0.567,1.252c-0.074,0.552,0.427,1.012,0.98,0.945l11.117-1.368
				l1.639-0.202l11.117-1.368c0.553-0.068,0.927-0.637,0.722-1.154C450.981,203.771,450.727,203.393,450.261,203.029z"/>
			<path style="fill:#FFFFFF;" d="M433.661,209.785c-0.589,0.073-0.931,0.693-0.69,1.235c0.655,1.471,2.335,3.838,6.606,3.312
				c4.268-0.525,5.338-3.241,5.597-4.824c0.095-0.582-0.386-1.093-0.971-1.021L433.661,209.785z"/>
		</g>
		<g>
			<path style="fill:#FFFFFF;" d="M207.282,100.325l2.651-8.072l3.01,8.072c0,0,6.014,1.023,6.084,1.584
				c0.068,0.548-5.756,2.265-5.756,2.265s-2.445,7.827-3.339,6.054s-1.761-5.697-1.761-5.697s-7.574-1.573-7.574-2.345
				C200.598,101.35,207.282,100.325,207.282,100.325z"/>
		</g>
		<g>
			<path style="fill:#FFFFFF;" d="M335.232,218.982l1.784-5.433l2.026,5.433c0,0,4.048,0.688,4.095,1.066
				c0.046,0.369-3.874,1.525-3.874,1.525s-1.645,5.268-2.247,4.075c-0.602-1.193-1.185-3.834-1.185-3.834s-5.097-1.059-5.097-1.579
				C330.733,219.672,335.232,218.982,335.232,218.982z"/>
		</g>
		<g>
			<path style="fill:#FFFFFF;" d="M364.036,107.899l1.784-5.433l2.026,5.433c0,0,4.048,0.688,4.095,1.066
				c0.046,0.369-3.874,1.525-3.874,1.525s-1.645,5.268-2.247,4.075c-0.602-1.193-1.185-3.834-1.185-3.834s-5.097-1.059-5.097-1.579
				C359.537,108.589,364.036,107.899,364.036,107.899z"/>
		</g>
		<g>
			<path style="fill:#FFFFFF;" d="M83.986,401.393l1.784-5.433l2.026,5.433c0,0,4.048,0.688,4.095,1.066
				c0.046,0.369-3.874,1.525-3.874,1.525s-1.645,5.268-2.247,4.075c-0.602-1.193-1.185-3.834-1.185-3.834s-5.097-1.059-5.097-1.579
				C79.488,402.083,83.986,401.393,83.986,401.393z"/>
		</g>
		<g>
			<path style="fill:#FFFFFF;" d="M48.716,262.696l1.784-5.433l2.026,5.433c0,0,4.048,0.688,4.095,1.066
				c0.046,0.369-3.874,1.525-3.874,1.525s-1.645,5.268-2.247,4.075c-0.601-1.193-1.185-3.834-1.185-3.834s-5.097-1.059-5.097-1.579
				C44.218,263.386,48.716,262.696,48.716,262.696z"/>
		</g>
	</g>
</g>
<g id="Robot">
	<g>
		<g>
			<g>
				<g>
					<path style="fill:#421B36;" d="M395.91,273.214c-13.075-10.186-165.099-8.961-183.694,0.135
						c-8.646,42.543-9.81,126.185-9.81,126.185s-66.382,40.91-71.385,43.622c-5.003,2.712-0.665,10.628-0.665,10.628
						c65.598,3.053,133.109,4.295,183.482,4.641c13.503-3.537,39.248-25.513,61.835-41.348c6.558-4.598,11.699-11.385,12.759-19.323
						C393.125,362.587,402.373,278.249,395.91,273.214z"/>
				</g>
				<g>
					<path style="fill:#FFFFFF;" d="M316.571,270.523c0,1.418-1.149,2.567-2.567,2.567c-1.418,0-2.567-1.149-2.567-2.567
						c0-1.418,1.149-2.567,2.567-2.567C315.422,267.956,316.571,269.105,316.571,270.523z"/>
				</g>
				<g>
					<path style="fill:#A0D2F4;" d="M211.664,398.065c0,0,155.15,5.162,159.239,2.627c3.633-2.252,10.533-112.867,7.655-118.513
						c-3.747-7.353-156.578-10.967-158.446-0.375C218.408,291.473,208.88,398.171,211.664,398.065z"/>
				</g>
				<g>
					<path style="fill:#8380FF;" d="M169.753,427.972c0,0,153.693,4.011,159.147,1.034c5.454-2.977,34.658-20.025,31.72-20.676
						c-2.935-0.651-151.047-2.001-155.924-2.003L169.753,427.972z"/>
				</g>
				<g>
					<g>
						<path style="fill:#8380FF;" d="M329.267,440.86c7.687-4.649,15.432-9.243,22.841-14.331c0.928-0.637,0.103-2.113-0.894-1.529
							c-7.754,4.55-15.205,9.616-22.681,14.604C327.762,440.12,328.458,441.349,329.267,440.86L329.267,440.86z"/>
					</g>
				</g>
				<g>
					<g>
						<path style="fill:#8380FF;" d="M358.327,422.639c1.836,0,1.839-2.854,0-2.854
							C356.491,419.786,356.488,422.639,358.327,422.639L358.327,422.639z"/>
					</g>
				</g>
				<g>
					<g>
						<path style="fill:#8380FF;" d="M367.323,416.436c1.938,0,1.941-3.012,0-3.012
							C365.385,413.424,365.382,416.436,367.323,416.436L367.323,416.436z"/>
					</g>
				</g>
			</g>
		</g>
		<g>
			
				<ellipse transform="matrix(0.7071 -0.7071 0.7071 0.7071 -151.3456 238.1228)" style="fill:#421B36;" cx="211.767" cy="301.752" rx="19.55" ry="19.55"/>
		</g>
		<g>
			
				<ellipse transform="matrix(0.7988 -0.6017 0.6017 0.7988 -112.2459 254.7967)" style="fill:#421B36;" cx="324.753" cy="295.186" rx="19.55" ry="19.55"/>
		</g>
		<g>
			<g>
				<path style="fill:#8380FF;" d="M329.065,278.491c-13.43,4.894-2.86,45.232-2.86,45.232c9.557,3.776,32.842,10.858,54.409,15.197
					l-1.39-48.948C357.656,284.546,333.023,277.049,329.065,278.491z"/>
			</g>
			<g>
				<g>
					<path style="fill:#421B36;" d="M377.63,329.786c-11.254-2.998-22.427-6.33-33.557-9.757
						c-6.077-1.872-12.139-3.794-18.184-5.768c-0.864-0.282-1.234,1.078-0.375,1.359c16.066,5.245,32.246,10.165,48.541,14.653
						c1.066,0.294,2.132,0.587,3.2,0.871C378.132,331.378,378.507,330.02,377.63,329.786L377.63,329.786z"/>
				</g>
			</g>
		</g>
		<g>
			
				<ellipse transform="matrix(0.7071 -0.7071 0.7071 0.7071 -230.3164 196.4299)" style="fill:#421B36;" cx="121.954" cy="376.231" rx="19.55" ry="19.55"/>
		</g>
		<g>
			<g>
				<path style="fill:#8380FF;" d="M221.277,320.047c0,0-16.1-29.528-30.162-26.967c-8.236,1.5-67.315,56.728-67.208,68.491
					c0.108,11.763,19.655,33.77,29.102,25.8C163.361,378.637,216.275,329.672,221.277,320.047z"/>
			</g>
			<g>
				<g>
					<path style="fill:#421B36;" d="M143.392,386.864c19.811-19.421,39.243-39.224,58.887-58.814
						c5.146-5.132,10.305-10.251,15.495-15.339c0.649-0.636-0.348-1.632-0.996-0.996c-19.811,19.421-39.243,39.224-58.887,58.814
						c-5.146,5.132-10.305,10.251-15.495,15.339C141.747,386.504,142.743,387.5,143.392,386.864L143.392,386.864z"/>
				</g>
			</g>
		</g>
		<g>
			<path style="fill:#8380FF;" d="M209.469,175.492c0,0,93.038,1.223,104.22,11.629c11.182,10.406,3.871,72.399-10.327,77.389
				c-14.285,5.02-92.71-3.37-105.773-8.418C189.351,252.909,192.455,174.68,209.469,175.492z"/>
		</g>
		<g>
			<path style="fill:#421B36;" d="M104.58,265.276c0-0.773,0-22.046,3.667-22.998c3.667-0.952,30.437-0.318,32.637,1.905
				c2.2,2.222,2.934,23.901,2.934,23.901L104.58,265.276z"/>
		</g>
		<g>
			<path style="fill:#8380FF;" d="M102.129,212.015c-4.137-0.626-7.578-3.663-8.551-7.732c-0.35-1.464-0.619-3.201-0.733-5.249
				c-0.393-7.035-3.082-18.495-10.128-16.294c-7.046,2.202-5.284,25.982-5.284,25.982s-3.695-10.246-9.115-16.007
				c-4.371-4.647-12.274-1.023-11.595,5.32l0.013,0.119c0,0-7.046-2.202-9.248,1.761c-2.202,3.963-1.762,11.89,7.926,22.018
				l4.404,4.404c0,0-16.293-7.486-19.816-3.083c-3.523,4.404-2.587,9.107,12.771,14.092c20.266,6.578,49.321,3.963,49.321,3.963
				s-1.619,6.264,0.583,8.906c2.202,2.642,40.005,0,40.005,0s8.115-20.132,0.807-28.722c-6.877-8.084-16.492-8.283-22.658-8.283
				C116.668,213.21,108.333,212.954,102.129,212.015z"/>
		</g>
		<g>
			<g>
				<path style="fill:#421B36;" d="M55.871,223.832c3.514,4.508,7.972,8.315,12.64,11.58c4.579,3.203,9.743,6.173,15.287,7.261
					c0.886,0.174,1.265-1.184,0.375-1.359c-5.437-1.067-10.458-3.98-14.951-7.119c-4.571-3.194-8.916-6.949-12.355-11.36
					C56.311,222.121,55.32,223.124,55.871,223.832L55.871,223.832z"/>
			</g>
		</g>
		<g>
			<g>
				<path style="fill:#421B36;" d="M55.847,198.236c0.481,7.768,3.126,15.349,7.733,21.639c4.022,5.491,9.785,9.633,15.662,12.951
					c3.253,1.836,6.679,3.461,10.273,4.506c0.872,0.254,1.245-1.106,0.375-1.359c-3.898-1.134-7.581-2.959-11.068-5.017
					c-3.715-2.193-7.29-4.711-10.415-7.695c-6.751-6.444-10.579-15.788-11.151-25.025C57.201,197.335,55.791,197.329,55.847,198.236
					L55.847,198.236z"/>
			</g>
		</g>
		<g>
			<g>
				<path style="fill:#421B36;" d="M76.647,199.398c0.071,12.254,5.608,23.659,15.253,31.227c0.706,0.554,1.71-0.437,0.996-0.996
					c-9.365-7.348-14.771-18.313-14.84-30.23C78.051,198.492,76.642,198.49,76.647,199.398L76.647,199.398z"/>
			</g>
		</g>
		<g>
			<path style="fill:#8380FF;" d="M239.886,398.951c0,0,9.262-13.165,13.069-12.585c3.807,0.58,67.193-17.738,73.573-14.099
				c6.381,3.638,25.132,29.126,25.132,29.126C322.292,402.153,282.566,400.846,239.886,398.951z"/>
		</g>
		<g>
			<path style="fill:#421B36;" d="M248.624,380.962c0,0,2.857,11.559,5.738,13.026c2.716,1.383,24.715,7.897,47.371,1.314
				c12.868-3.739,19.578-9.287,22.974-13.384c2.234-2.695,2.933-6.334,1.821-9.653l-2.478-7.395L248.624,380.962z"/>
		</g>
		<g>
			<path style="fill:#8380FF;" d="M211.511,283.903c0,0-8.636,30.46-4.551,46.18c4.085,15.72,17.582,48.765,27.356,51.092
				c9.774,2.327,94.723-9.044,96.119-22.541c1.396-13.497-7.338-83.493-17.029-85.664
				C264.785,262.077,213.094,277.644,211.511,283.903z"/>
		</g>
		<g>
			<path style="fill:#8380FF;" d="M143.187,260.049c0,0-40.018-4.152-44.231,3.082c-4.213,7.234-13.704,96.653-6.005,105.546
				c7.7,8.893,43.194,0.181,45.231-12.009C140.414,343.309,145.609,270.622,143.187,260.049z"/>
		</g>
		<g>
			<g>
				<path style="fill:#421B36;" d="M127.863,367.218c2.626-28.908,3.117-57.981,4.783-86.951c0.433-7.522,0.928-15.042,1.61-22.546
					c0.082-0.903-1.328-0.897-1.409,0c-2.626,28.908-3.117,57.981-4.783,86.951c-0.433,7.522-0.928,15.042-1.61,22.546
					C126.372,368.121,127.782,368.116,127.863,367.218L127.863,367.218z"/>
			</g>
		</g>
		<g>
			<g>
				<path style="fill:#421B36;" d="M211.429,283.54c-5.263,18.073-5.346,36.988-0.936,55.247c1.306,5.409,2.973,10.721,4.892,15.942
					c0.31,0.844,1.673,0.479,1.359-0.375c-6.391-17.39-9.652-35.903-7.326-54.404c0.683-5.428,1.84-10.785,3.369-16.036
					C213.041,283.043,211.682,282.67,211.429,283.54L211.429,283.54z"/>
			</g>
		</g>
		<g>
			<g>
				<path style="fill:#421B36;" d="M84.484,242.492c9.358-7.465,15.849-18.212,18.111-29.966c0.171-0.886-1.187-1.266-1.359-0.375
					c-2.222,11.549-8.555,22.012-17.749,29.345C82.779,242.061,83.782,243.052,84.484,242.492L84.484,242.492z"/>
			</g>
		</g>
		<g>
			<g>
				<path style="fill:#421B36;" d="M84.277,243.141c20.401-0.703,40.801-1.406,61.202-2.109c0.904-0.031,0.908-1.44,0-1.409
					c-20.401,0.703-40.801,1.406-61.202,2.109C83.372,241.763,83.368,243.172,84.277,243.141L84.277,243.141z"/>
			</g>
		</g>
		<g>
			<path style="fill:#421B36;" d="M286.389,256.062c-25.604,0-68.398-5.084-82.046-8.373c-0.961-4.888-1.771-16.303-0.423-31.484
				c1.697-19.102,5.312-27.981,7.102-30.699c50.938,0.758,88.818,5.179,95.823,8.985c1.566,2.779,3.435,14.012,1.41,31.074
				c-2.133,17.974-6.66,27.545-8.678,29.643C298.419,255.474,294.891,256.062,286.389,256.062z M299.325,255.443"/>
		</g>
		<g>
			<g>
				<path style="fill:#A0D2F4;" d="M225.16,210.393c0.064,3.232,2.477,5.804,5.39,5.747c2.913-0.058,5.222-2.725,5.158-5.957
					c-0.064-3.232-2.478-5.804-5.391-5.746C227.404,204.494,225.095,207.161,225.16,210.393z"/>
			</g>
		</g>
		<g>
			<g>
				<path style="fill:#A0D2F4;" d="M280.406,214.131c0.064,3.232,2.478,5.804,5.391,5.746c2.913-0.058,5.222-2.724,5.158-5.956
					c-0.064-3.231-2.478-5.804-5.391-5.746C282.651,208.233,280.342,210.9,280.406,214.131z"/>
			</g>
		</g>
		<g>
			<g>
				<path style="fill:#A0D2F4;" d="M242.938,215.313c8.99,5.805,20.884,6.179,30.238,0.997c0.793-0.439,0.084-1.657-0.711-1.217
					c-8.931,4.947-20.245,4.537-28.816-0.998C242.885,213.603,242.178,214.822,242.938,215.313L242.938,215.313z"/>
			</g>
		</g>
		<g>
			
				<ellipse transform="matrix(0.9989 -0.0463 0.0463 0.9989 -12.6715 12.5056)" style="fill:#421B36;" cx="263.37" cy="279.537" rx="25.061" ry="7.133"/>
		</g>
		<g>
			<g>
				<path style="fill:#421B36;" d="M262.316,282.739c2.702,24.555,7.585,48.856,14.637,72.533
					c1.987,6.673,4.149,13.293,6.471,19.857c0.3,0.849,1.662,0.483,1.359-0.375c-8.156-23.06-14.266-46.834-18.195-70.978
					c-1.137-6.986-2.088-14.001-2.862-21.037C263.627,281.847,262.217,281.837,262.316,282.739L262.316,282.739z"/>
			</g>
		</g>
		<g>
			<g>
				<path style="fill:#421B36;" d="M211.954,285.926c9.006-3.243,18.39-5.29,27.932-6.063c0.898-0.073,0.905-1.483,0-1.409
					c-9.668,0.783-19.18,2.828-28.307,6.113C210.733,284.872,211.098,286.234,211.954,285.926L211.954,285.926z"/>
			</g>
		</g>
		<g>
			<g>
				<path style="fill:#421B36;" d="M285.381,278.096c9.524-0.746,19.083-0.873,28.623-0.381c0.906,0.047,0.904-1.362,0-1.409
					c-9.541-0.493-19.099-0.365-28.623,0.381C284.483,276.757,284.475,278.167,285.381,278.096L285.381,278.096z"/>
			</g>
		</g>
		<g>
			<g>
				<path style="fill:#421B36;" d="M206.449,175.504c-0.124,4.23,0.957,8.435,3.097,12.084c0.458,0.782,1.677,0.074,1.217-0.711
					c-2.02-3.445-3.022-7.381-2.905-11.373C207.884,174.597,206.475,174.598,206.449,175.504L206.449,175.504z"/>
			</g>
		</g>
		<g>
			<g>
				<path style="fill:#421B36;" d="M306.332,196.099c3.866-1.787,7.342-4.382,10.158-7.577c0.598-0.678-0.395-1.678-0.996-0.996
					c-2.747,3.116-6.102,5.614-9.873,7.357C304.799,195.263,305.514,196.478,306.332,196.099L306.332,196.099z"/>
			</g>
		</g>
		<g>
			<g>
				<path style="fill:#421B36;" d="M299.367,255.574c2.213,2.688,4.03,5.688,5.422,8.879c0.152,0.348,0.664,0.43,0.964,0.253
					c0.359-0.212,0.406-0.612,0.253-0.964c-1.443-3.307-3.349-6.379-5.642-9.164c-0.244-0.296-0.743-0.248-0.996,0
					C299.073,254.865,299.126,255.282,299.367,255.574L299.367,255.574z"/>
			</g>
		</g>
		<g>
			<g>
				<path style="fill:#421B36;" d="M197.783,256.067c2.315-3.698,5.579-6.725,9.428-8.777c0.801-0.427,0.09-1.644-0.711-1.217
					c-4.057,2.163-7.494,5.387-9.933,9.283C196.083,256.126,197.302,256.834,197.783,256.067L197.783,256.067z"/>
			</g>
		</g>
		<g>
			<g>
				<path style="fill:#421B36;" d="M100.122,373.835c9.457,0.938,19.08-0.056,28.125-2.99c3.565-1.156,7.878-2.484,9.762-6.035
					c0.948-1.786,1.223-3.809,1.465-5.789c0.304-2.478,0.557-4.963,0.773-7.45c0.504-5.805,0.775-11.627,0.832-17.453
					c0.009-0.907-1.4-0.908-1.409,0c-0.046,4.716-0.23,9.43-0.569,14.134c-0.322,4.473-0.453,9.24-1.508,13.61
					c-1.128,4.672-5.336,6.184-9.473,7.543c-4.213,1.384-8.568,2.36-12.972,2.889c-4.989,0.6-10.027,0.626-15.026,0.13
					C99.22,372.336,99.227,373.746,100.122,373.835L100.122,373.835z"/>
			</g>
		</g>
		<g>
			<g>
				<path style="fill:#421B36;" d="M315.351,276.804c7.06,17.001,11.725,34.986,13.729,53.289c0.569,5.197,0.92,10.414,1.072,15.639
					c0.026,0.905,1.435,0.909,1.409,0c-0.535-18.442-3.667-36.791-9.334-54.351c-1.632-5.058-3.479-10.044-5.517-14.952
					C316.367,275.603,315.003,275.966,315.351,276.804L315.351,276.804z"/>
			</g>
		</g>
		<g>
			<g>
				<g>
					<g>
						<path style="fill:#8380FF;" d="M363.846,358.497c0,0-4.046,6.978-2.44,11.599c2.081,5.989,14.606,17.479,20.918,16.426
							c6.312-1.053,6.1-8.99,3.287-11.018c-2.813-2.028-10.61-5.625-12.769-8.304c-1.955-2.427-0.659-4.077-0.659-4.077
							s15.215,8.57,20.656,4.387c5.441-4.184,0.98-8.674,0.98-8.674s8.617-5.594-0.351-13.077c0,0,1.375-5.161-2.04-8.848
							c-3.415-3.688-12.059-7.469-12.059-7.469s1.866-10.944,0.403-11.476c-4.888-1.778-19.278,11.812-16.044,17.376
							c0,0-3.244,6.524-1.155,11.002l1.269,2.036C363.842,348.38,360.003,354.789,363.846,358.497z"/>
					</g>
				</g>
				<g>
					<g>
						<path style="fill:#421B36;" d="M374.066,328.064c1.793,0.759,3.562,1.58,5.318,2.421c3.488,1.669,7.42,3.296,10.452,5.723
							c1.941,1.554,3.433,3.771,3.532,6.316c0.013,0.349-0.038,0.874-0.046,1.067c-0.021,0.534,0.102,1.033-0.088,1.562
							c-0.503,1.4-1.972,2.034-3.35,2.147c-1.89,0.155-3.86-0.308-5.697-0.706c-2.151-0.467-4.268-1.086-6.332-1.849
							c-3.706-1.37-7.615-3.169-10.615-5.792c-1.514-1.324-3.306-3.526-3.34-5.402c-0.034-1.886,1.051-3.754,2.063-5.261
							c2.307-3.434,5.556-6.543,9.169-8.573c0.965-0.542,1.973-1.013,3.035-1.332c0.32-0.096,1.08-0.264,1.12-0.268
							c0.895-0.084,0.904-1.494,0-1.409c-1.456,0.137-2.893,0.768-4.179,1.424c-3.62,1.848-6.764,4.769-9.26,7.944
							c-1.549,1.971-3.094,4.343-3.329,6.912c-0.171,1.864,0.818,3.677,1.937,5.094c2.654,3.361,6.878,5.461,10.733,7.107
							c4.148,1.771,8.727,3.187,13.25,3.509c1.829,0.13,3.784-0.158,5.124-1.52c0.982-0.999,1.114-2.044,1.128-3.273
							c0.021-1.833-0.037-3.382-0.885-5.092c-2.007-4.044-6.589-5.974-10.394-7.909c-2.833-1.44-5.707-2.818-8.635-4.057
							C373.952,326.498,373.233,327.711,374.066,328.064L374.066,328.064z"/>
					</g>
				</g>
				<g>
					<g>
						<path style="fill:#421B36;" d="M395.445,357.475c-9.377,0.324-18.733-2.134-26.732-7.046c-1.983-1.218-4.28-2.572-5.875-4.274
							c-0.336-0.359-0.608-0.789-0.854-1.213c-1.863-3.214-0.465-6.014,2.612-7.799c0.784-0.455,0.076-1.673-0.711-1.217
							c-2.441,1.416-4.499,3.599-4.188,6.608c0.166,1.604,0.949,3.319,2.052,4.51c0.895,0.966,2.094,1.754,3.158,2.529
							c1.694,1.234,3.472,2.353,5.314,3.354c3.6,1.955,7.451,3.466,11.42,4.477c4.506,1.147,9.159,1.641,13.805,1.48
							C396.349,358.853,396.354,357.444,395.445,357.475L395.445,357.475z"/>
					</g>
				</g>
				<g>
					<g>
						<path style="fill:#421B36;" d="M391.727,367.714c-6.943,0-13.926-1.168-20.004-4.683c-1.492-0.863-2.917-1.842-4.251-2.933
							c-1.244-1.017-2.716-2.156-3.676-3.451c-1.667-2.25-0.701-5.373,0.721-7.434c0.516-0.748-0.705-1.454-1.217-0.711
							c-1.708,2.476-2.515,5.834-0.889,8.581c0.659,1.113,1.828,2.048,2.776,2.904c1.386,1.252,2.871,2.4,4.44,3.414
							c6.584,4.256,14.361,5.722,22.101,5.722C392.634,369.123,392.636,367.714,391.727,367.714L391.727,367.714z"/>
					</g>
				</g>
			</g>
			<g>
				<g>
					<path style="fill:#421B36;" d="M364.048,358.921c-1.505,2.562-3.173,5.227-3.465,8.252c-0.27,2.797,0.936,5.411,2.508,7.648
						c3.22,4.583,7.885,8.17,12.576,11.142c0.768,0.487,1.476-0.732,0.711-1.217c-4.281-2.712-8.519-5.941-11.608-10.004
						c-1.518-1.997-2.89-4.364-2.819-6.951c0.082-2.986,1.85-5.667,3.314-8.159C365.725,358.849,364.507,358.139,364.048,358.921
						L364.048,358.921z"/>
				</g>
			</g>
			<g>
				<g>
					<path style="fill:#421B36;" d="M373.938,365.332c-0.168,1.008-0.337,2.017-0.505,3.025c-0.053,0.318,0.037,0.621,0.324,0.796
						c3.752,2.277,7.967,3.696,11.719,5.973c0.777,0.472,1.486-0.746,0.711-1.217c-3.752-2.277-7.967-3.696-11.719-5.973
						c0.108,0.265,0.216,0.53,0.324,0.796c0.168-1.008,0.337-2.017,0.505-3.025C375.445,364.82,374.087,364.438,373.938,365.332
						L373.938,365.332z"/>
				</g>
			</g>
		</g>
		<g>
			<path style="fill:#A0D2F4;" d="M199.077,444.927c0,0,19.878-13.042,21.269-13.006c3.402,0.088,47.41,0.178,47.41,1.078
				c0,0.9-17.366,12.795-17.366,12.795L199.077,444.927z"/>
		</g>
		<g>
			<g>
				<path style="fill:#FFFFFF;" d="M323.66,392.932c9.142-6.974,18.285-13.948,27.427-20.922c0.712-0.543,0.01-1.767-0.711-1.217
					c-9.142,6.974-18.285,13.948-27.427,20.922C322.237,392.258,322.938,393.482,323.66,392.932L323.66,392.932z"/>
			</g>
		</g>
		<g>
			<g>
				<path style="fill:#FFFFFF;" d="M308.161,388.531c13.219-11.032,26.437-22.063,39.656-33.095
					c0.697-0.582-0.305-1.574-0.996-0.996c-13.219,11.032-26.437,22.063-39.656,33.095
					C306.468,388.117,307.469,389.109,308.161,388.531L308.161,388.531z"/>
			</g>
		</g>
	</g>
</g>
<g id="AI_icon">
	<g>
		<g>
			<path style="fill:#8380FF;" d="M89.203,135.487c-0.131,1.279-3.252,42.24,1.626,46.729c4.878,4.489,53.687,4.322,54.053,0
				c0.366-4.322,2.477-39.779-1.628-45.47C139.148,131.055,89.542,132.169,89.203,135.487z"/>
		</g>
		<g>
			<path style="fill:#A0D2F4;" d="M100.899,170.571c-0.113,0.384-0.299,0.665-0.559,0.846c-0.26,0.181-0.581,0.271-0.965,0.271
				c-0.429,0-0.801-0.13-1.117-0.389c-0.317-0.259-0.474-0.592-0.474-0.999c0-0.113,0.022-0.254,0.068-0.423
				c0.045-0.169,0.146-0.468,0.304-0.897c0.767-1.963,1.585-3.921,2.454-5.873c0.869-1.952,1.771-3.91,2.708-5.873
				c0.936-1.963,1.89-3.932,2.86-5.907c0.97-1.975,1.929-3.965,2.877-5.975c0.135-0.293,0.333-0.513,0.592-0.66
				c0.259-0.146,0.536-0.22,0.829-0.22c0.384,0,0.728,0.102,1.033,0.305c0.304,0.203,0.513,0.474,0.626,0.812
				c0.113,0.271,0.361,0.897,0.745,1.879c0.384,0.981,0.847,2.183,1.388,3.605c0.542,1.422,1.134,2.956,1.777,4.604
				c0.644,1.648,1.286,3.295,1.93,4.942c0.643,1.647,1.252,3.182,1.827,4.604c0.576,1.421,1.055,2.606,1.439,3.554
				c0.113,0.226,0.225,0.479,0.339,0.761c0.113,0.283,0.169,0.514,0.169,0.694c0,0.496-0.152,0.886-0.457,1.168
				c-0.304,0.282-0.649,0.423-1.032,0.423c-0.226,0-0.491-0.051-0.796-0.152c-0.304-0.102-0.525-0.311-0.66-0.626
				c-0.767-1.828-1.54-3.757-2.319-5.788c-0.779-2.031-1.54-4.045-2.285-6.042c-0.745-1.997-1.444-3.859-2.099-5.585
				c-0.655-1.726-1.219-3.21-1.693-4.451c-1.106,2.46-2.217,4.88-3.334,7.261c-1.117,2.381-2.201,4.745-3.25,7.092
				C102.778,165.877,101.802,168.224,100.899,170.571z M101.982,161.499c0-0.293,0.102-0.536,0.305-0.728
				c0.203-0.192,0.445-0.344,0.728-0.457c0.282-0.113,0.547-0.192,0.795-0.237c0.496-0.113,1.185-0.208,2.065-0.288
				c0.88-0.079,1.907-0.129,3.08-0.152c1.173-0.022,2.448,0,3.825,0.068c0.428,0.023,0.869,0.029,1.32,0.017
				c0.451-0.011,0.886-0.028,1.303-0.051c0.417-0.022,0.801-0.051,1.151-0.085c0.35-0.034,0.648-0.073,0.897-0.118
				c0.474-0.068,0.858,0.057,1.151,0.373c0.293,0.316,0.44,0.689,0.44,1.117c0,0.384-0.118,0.689-0.356,0.914
				c-0.237,0.226-0.547,0.395-0.931,0.508c-0.384,0.113-0.784,0.186-1.202,0.22c-0.418,0.034-0.808,0.051-1.168,0.051
				c-1.286,0-2.595,0.006-3.926,0.017c-1.332,0.012-2.647,0.051-3.944,0.118c-1.298,0.068-2.578,0.18-3.842,0.339
				c-0.339,0.023-0.705-0.135-1.1-0.474C102.18,162.311,101.982,161.928,101.982,161.499z"/>
			<path style="fill:#A0D2F4;" d="M127.201,146.571c0.022-0.474,0.192-0.824,0.508-1.049c0.315-0.226,0.665-0.339,1.049-0.339
				c0.428,0,0.801,0.113,1.117,0.339c0.316,0.226,0.462,0.587,0.44,1.083c-0.362,3.949-0.643,7.904-0.847,11.864
				c-0.203,3.96-0.35,7.927-0.44,11.898c0,0.474-0.164,0.824-0.491,1.049c-0.327,0.226-0.683,0.339-1.066,0.339
				c-0.406,0-0.767-0.113-1.083-0.339c-0.316-0.226-0.474-0.586-0.474-1.083c0.09-3.949,0.237-7.909,0.44-11.882
				C126.558,154.481,126.84,150.52,127.201,146.571z"/>
		</g>
	</g>
</g>
<g id="Line">
	<g>
		<g>
			<g>
				<path style="fill:#421B36;" d="M64.666,153.364c-4.822-2.561-9.644-5.123-14.466-7.684c-0.056,0.429-0.112,0.859-0.168,1.288
					c6.549-1.928,13.097-3.855,19.645-5.783c0.342-0.101,0.626-0.503,0.492-0.867c-3.926-10.619-7.852-21.238-11.778-31.857
					c-0.345,0.265-0.69,0.531-1.035,0.796c8.63,5.685,17.26,11.37,25.889,17.055c0.402,0.265,0.896-0.014,1.035-0.421
					c3.096-9.072,4.491-18.642,4.117-28.22c-0.401,0.166-0.802,0.332-1.203,0.498c6.415,6.654,11.784,14.214,15.967,22.456
					c0.236,0.466,0.976,0.452,1.217,0c3.172-5.97,6.343-11.94,9.515-17.91c0.425-0.8-0.791-1.513-1.217-0.711
					c-3.172,5.97-6.343,11.94-9.515,17.91c0.406,0,0.811,0,1.217,0c-4.235-8.344-9.694-16.005-16.187-22.741
					c-0.414-0.43-1.227-0.114-1.203,0.498c0.37,9.464-1.007,18.882-4.067,27.846c0.345-0.14,0.69-0.281,1.035-0.421
					c-8.63-5.685-17.26-11.37-25.889-17.055c-0.492-0.324-1.248,0.22-1.035,0.796c3.926,10.619,7.852,21.238,11.777,31.857
					c0.164-0.289,0.328-0.578,0.492-0.867c-6.549,1.928-13.097,3.855-19.646,5.783c-0.559,0.165-0.718,0.996-0.168,1.288
					c4.822,2.561,9.644,5.123,14.466,7.684C64.756,155.006,65.468,153.79,64.666,153.364L64.666,153.364z"/>
			</g>
		</g>
		<g>
			<g>
				<path style="fill:#421B36;" d="M117.389,92.1c-0.115-0.115-0.23-0.23-0.345-0.345c-0.064-0.069-0.139-0.117-0.227-0.146
					c-0.084-0.044-0.174-0.064-0.271-0.061c-0.097-0.004-0.188,0.017-0.271,0.061c-0.087,0.028-0.163,0.077-0.227,0.146
					c-0.037,0.048-0.073,0.095-0.11,0.143c-0.064,0.11-0.096,0.228-0.096,0.356c0.008,0.063,0.017,0.125,0.025,0.187
					c0.034,0.119,0.094,0.223,0.181,0.311c0.115,0.115,0.23,0.23,0.345,0.345c0.064,0.069,0.139,0.117,0.227,0.146
					c0.084,0.044,0.174,0.064,0.271,0.061c0.097,0.004,0.188-0.017,0.271-0.061c0.087-0.028,0.163-0.077,0.227-0.146
					c0.037-0.048,0.073-0.095,0.11-0.143c0.064-0.11,0.096-0.228,0.096-0.356c-0.008-0.062-0.017-0.125-0.025-0.187
					C117.537,92.291,117.476,92.188,117.389,92.1L117.389,92.1z"/>
			</g>
		</g>
	</g>
</g>
<g id="Speech_Bubbles">
	<g>
		<g>
			<path style="fill:#A0D2F4;" d="M416.221,224.799c-1.562-9.249-8.343-17.601-17.064-21.942l0.063,0.02
				c-6.141-3.539-15.183-6.023-21.789-4.07c-6.607,1.952-12.165,6.456-15.65,12.137c-5.121,8.347-5.441,19.401-0.986,28.44
				c-2.612,1.62-5.638,2.572-8.711,2.689c3.438,2.743,8.108,3.83,12.419,3.011c0.074,0.088,0.137,0.182,0.212,0.27
				c8.289,9.697,23.252,13.525,34.824,8.907C411.111,249.643,418.279,236.983,416.221,224.799z"/>
		</g>
		<g>
			<g>
				<g>
					<g>
						<path style="fill:#8380FF;" d="M374.568,243.65c1.002,0.432,3.548-1.494,4.577-2.325l0.323,0.207c0,0,0.33,4.736,0.707,5.446
							c0.376,0.71,5.656,1.473,7.352,0.829c1.695-0.645,2.042-5.339,2.042-5.339l1.787-0.403c0,0,3.161,4.107,4.088,3.797
							c0.927-0.31,4.55-2.669,5.935-4.241c1.385-1.572-2.185-5.352-2.185-5.352l0.967-1.605c0,0,4.578,0.263,5.43-0.188
							c0.852-0.452,1.74-6.525,1.438-7.711c-0.302-1.186-6.158-2.008-6.158-2.008l-0.369-1.587c0,0,3.113-3.252,3.83-4.506
							c0.717-1.253-3.346-5.209-4.583-5.826c-1.237-0.617-5.16,2.41-5.16,2.41l-1.354-0.576c0,0-0.021-5.17-0.481-5.762
							c-0.46-0.593-6.609-1.623-7.978-1.187c-1.37,0.436-1.658,5.172-1.658,5.172l-0.111,0.637l-1.669,0.474
							c0,0-3.382-3.926-4.291-3.566c-0.908,0.361-4.396,2.915-5.693,4.561c-1.296,1.646,2.477,5.224,2.477,5.224l-0.878,1.656
							c0,0-4.585-0.01-5.411,0.488c-0.825,0.498-1.378,6.611-1.011,7.779c0.367,1.167,6.259,1.665,6.259,1.665l0.456,1.564
							c0,0-2.929,3.419-3.576,4.71C369.024,239.376,373.299,243.102,374.568,243.65z M382.773,233.116
							c-2.92-2.082-3.599-6.136-1.518-9.056c2.082-2.92,6.136-3.599,9.056-1.517c2.92,2.081,3.599,6.136,1.517,9.055
							C389.747,234.518,385.693,235.198,382.773,233.116z"/>
					</g>
				</g>
			</g>
		</g>
	</g>
	<g>
		<g>
			<g>
				<g>
					<path style="fill:#A0D2F4;" d="M385.246,127.137c-9.411-7.151-22.843-8.978-34.599-5.447l0.076-0.036
						c-8.694,2.044-19.144,7.559-23.53,15.05c-4.387,7.491-5.61,16.421-3.914,24.647c2.493,12.086,11.731,22.518,23.619,26.982
						c-1.004,3.74-2.963,7.225-5.685,9.982c5.524-0.444,10.753-3.473,14.008-7.943c0.144,0.018,0.283,0.05,0.427,0.065
						c15.978,1.763,33.027-7.624,39.677-21.845C401.974,154.37,397.643,136.557,385.246,127.137z"/>
				</g>
			</g>
			<g>
				<path style="fill:#8380FF;" d="M337.311,150.818c-7.626-3.245-14.857,2.669-17.189,8.047c-2.332,5.379-0.578,12.831,3.904,16.61
					c5.042,4.252,12.276,4.341,18.871,4.216c10.712-0.204,21.424-0.408,32.135-0.612c7.984-0.152,16.854-0.669,22.418-6.396
					c5.033-5.181,5.61-14.084,1.286-19.871c-4.323-5.786-13.025-7.758-19.42-4.4c0.377-7.193-4.172-14.27-10.687-17.341
					c-6.515-3.072-14.592-2.211-20.596,1.768C342.029,136.818,338.147,143.664,337.311,150.818"/>
			</g>
			<g>
				<g>
					<path style="fill:#421B36;" d="M343.351,160.329c0,6.146,0,12.292,0,18.438c0,0.544,0.846,0.545,0.846,0
						c0-6.146,0-12.292,0-18.438C344.197,159.785,343.351,159.785,343.351,160.329L343.351,160.329z"/>
				</g>
			</g>
			<g>
				<g>
					<path style="fill:#421B36;" d="M363.289,129.7c0,8.263,0,16.526,0,24.789c0,0.544,0.845,0.545,0.845,0
						c0-8.263,0-16.526,0-24.789C364.135,129.156,363.289,129.155,363.289,129.7L363.289,129.7z"/>
				</g>
			</g>
			<g>
				<path style="fill:#421B36;" d="M368.445,154.651c0,2.614-2.119,4.733-4.733,4.733c-2.614,0-4.733-2.119-4.733-4.733
					c0-2.614,2.119-4.733,4.733-4.733C366.326,149.917,368.445,152.036,368.445,154.651z"/>
			</g>
			<g>
				<path style="fill:#421B36;" d="M348.2,161.315c0,2.614-2.119,4.733-4.734,4.733c-2.614,0-4.733-2.119-4.733-4.733
					s2.119-4.733,4.733-4.733C346.081,156.582,348.2,158.701,348.2,161.315z"/>
			</g>
		</g>
		<g>
			<g>
				<path style="fill:#421B36;" d="M381.618,167.43c0,3.779,0,7.558,0,11.337c0,0.544,0.845,0.545,0.845,0c0-3.779,0-7.558,0-11.337
					C382.464,166.886,381.618,166.885,381.618,167.43L381.618,167.43z"/>
			</g>
		</g>
		<g>
			<circle style="fill:#421B36;" cx="381.733" cy="168.416" r="4.733"/>
		</g>
	</g>
	<g>
		<g>
			<g>
				<path style="fill:#A0D2F4;" d="M290.85,75.359c-12.263-2.139-28.593,0.519-38.131,9.245l0.056-0.069
					c-7.313,5.915-11.887,17.338-12.622,26.451c-0.736,9.113,2.188,18.144,7.56,25.171c7.892,10.325,21.427,15.996,34.746,14.794
					c0.759,4.007,0.494,8.21-0.828,12.069c5.038-2.948,8.613-8.212,9.656-13.942c0.144-0.049,0.291-0.083,0.435-0.133
					c15.964-5.635,29.24-20.041,29.044-36.574C320.57,95.84,308.866,78.502,290.85,75.359z"/>
			</g>
		</g>
		<g>
			<g>
				<g>
					<g>
						<path style="fill:#8380FF;" d="M282.359,87.832c-0.584-0.195-24.513-1.946-25.486,19.26
							c-0.973,21.206,16.342,20.427,16.731,20.622c0.389,0.195-0.389,3.502,0.778,4.086c1.167,0.584,12.646,1.556,13.229,0
							c0.584-1.556,0-4.086,0-4.086s16.648-0.969,15.758-21.789C302.592,87.715,282.359,87.832,282.359,87.832z"/>
					</g>
					<g>
						<g>
							<path style="fill:#421B36;" d="M277.144,129.628c0.06-4.423,0.254-8.869,0.161-13.291c-0.066-3.122-1.049-6.888-4.473-7.851
								c-2.814-0.792-5.208,1.44-5.648,4.116c-0.504,3.066,1.623,5.684,4.056,7.256c5.451,3.521,13.054,3.209,18.429-0.293
								c2.513-1.637,5.277-4.358,4.918-7.633c-0.292-2.669-3.001-4.53-5.603-4.193c-3.78,0.489-4.69,4.922-5.251,7.998
								c-0.871,4.781-1.259,9.635-1.183,14.493c0.016,1.02,1.603,1.024,1.587,0c-0.052-3.301,0.101-6.6,0.492-9.878
								c0.334-2.797,0.592-6.05,1.805-8.637c1.115-2.377,4.042-3.419,5.925-1.151c1.958,2.359-0.571,5.387-2.423,6.866
								c-4.042,3.225-9.763,4.151-14.659,2.577c-2.42-0.778-5.065-2.262-6.165-4.671c-0.935-2.048-0.028-5.722,2.812-5.419
								c3.923,0.419,3.823,5.669,3.786,8.518c-0.049,3.732-0.101,7.463-0.152,11.195C275.543,130.65,277.131,130.65,277.144,129.628
								L277.144,129.628z"/>
						</g>
					</g>
					<g>
						<g>
							<path style="fill:#421B36;" d="M271.507,130.385c0,0,0.668,6.313,1.169,7.77c0.501,1.457,2.755,3.723,5.427,4.047
								c2.672,0.324,5.762,0,5.762,0s3.674-0.81,4.426-4.452c0.751-3.642,1.238-7.138,1.238-7.138
								C288.463,129.786,271.36,129.07,271.507,130.385z"/>
						</g>
						<g>
							<g>
								<path style="fill:#8380FF;" d="M271.799,134.607c5.679,0.892,11.451,0.921,17.141,0.104
									c1.007-0.145,0.579-1.674-0.422-1.531c-5.384,0.773-10.924,0.741-16.297-0.104
									C271.222,132.919,270.792,134.449,271.799,134.607L271.799,134.607z"/>
							</g>
						</g>
						<g>
							<g>
								<path style="fill:#8380FF;" d="M272.766,138.911c5.064,1.308,10.401,1.332,15.478,0.077
									c0.991-0.245,0.571-1.776-0.422-1.531c-4.803,1.187-9.844,1.16-14.634-0.077
									C272.198,137.124,271.776,138.655,272.766,138.911L272.766,138.911z"/>
							</g>
						</g>
					</g>
				</g>
			</g>
		</g>
	</g>
</g>
</svg>
