<?xml version="1.0" encoding="utf-8"?>
<!-- Generator: Adobe Illustrator 27.5.0, SVG Export Plug-In . SVG Version: 6.00 Build 0)  -->
<svg version="1.1" xmlns="http://www.w3.org/2000/svg" xmlns:xlink="http://www.w3.org/1999/xlink" x="0px" y="0px"
	 viewBox="0 0 500 500" style="enable-background:new 0 0 500 500;" xml:space="preserve">
<g id="Background_Complete">
	<g>
		<rect y="382.398" style="fill:#EBEBEB;" width="500" height="0.25"/>
		<rect x="328.878" y="390.342" style="fill:#EBEBEB;" width="33.122" height="0.25"/>
		<rect x="399.779" y="390.467" style="fill:#EBEBEB;" width="41.14" height="0.25"/>
		<rect x="356.762" y="397" style="fill:#EBEBEB;" width="19.192" height="0.25"/>
		<rect x="174" y="395.11" style="fill:#EBEBEB;" width="51.667" height="0.25"/>
		<rect x="130.708" y="395.11" style="fill:#EBEBEB;" width="34.389" height="0.25"/>
		<rect x="63.287" y="390.888" style="fill:#EBEBEB;" width="46.838" height="0.25"/>
		<path style="fill:#EBEBEB;" d="M237.014,337.799H43.915c-3.147,0-5.708-2.561-5.708-5.708V60.66c0-3.147,2.561-5.708,5.708-5.708
			h193.099c3.146,0,5.707,2.561,5.707,5.708v271.432C242.721,335.239,240.16,337.799,237.014,337.799z M43.915,55.202
			c-3.01,0-5.458,2.448-5.458,5.458v271.432c0,3.01,2.448,5.458,5.458,5.458h193.099c3.009,0,5.457-2.448,5.457-5.458V60.66
			c0-3.009-2.448-5.458-5.457-5.458H43.915z"/>
		<path style="fill:#EBEBEB;" d="M453.31,337.799H260.212c-3.147,0-5.707-2.561-5.707-5.708V60.66c0-3.147,2.561-5.708,5.707-5.708
			H453.31c3.148,0,5.708,2.561,5.708,5.708v271.432C459.019,335.239,456.458,337.799,453.31,337.799z M260.212,55.202
			c-3.009,0-5.457,2.448-5.457,5.458v271.432c0,3.01,2.448,5.458,5.457,5.458H453.31c3.01,0,5.458-2.448,5.458-5.458V60.66
			c0-3.009-2.448-5.458-5.458-5.458H260.212z"/>
	</g>
	<g>
		<g>
			<g>
				<rect x="34.778" y="38.144" style="fill:#F5F5F5;" width="139.285" height="271.743"/>
				<polygon style="fill:#EBEBEB;" points="102,309.887 65.667,309.887 65.667,147.53 102,135.655 				"/>
				<polygon style="fill:#E6E6E6;" points="132.329,309.887 95.995,309.887 95.995,186.424 132.329,174.549 				"/>
				<polygon style="fill:#E6E6E6;" points="127.994,182.97 119.324,182.97 119.324,153.51 127.994,150.676 				"/>
				<rect x="180.057" y="38.144" style="fill:#F5F5F5;" width="139.286" height="271.743"/>
				<rect x="180.057" y="213.371" style="fill:#E6E6E6;" width="40.892" height="96.515"/>
				<rect x="325.937" y="38.144" style="fill:#F5F5F5;" width="139.285" height="271.743"/>
				<polygon style="fill:#EBEBEB;" points="434.893,309.887 405.333,309.887 405.333,114.517 434.893,102.642 				"/>
				<polygon style="fill:#E6E6E6;" points="465.222,309.887 428.889,309.887 428.889,186.424 465.222,174.549 				"/>
				<polygon style="fill:#E6E6E6;" points="334.997,309.884 407.664,309.884 407.664,213.891 334.997,204.658 				"/>
				<polygon style="fill:#E6E6E6;" points="460.887,182.97 456.552,182.97 456.552,153.51 460.887,150.676 				"/>
				<polygon style="fill:#E6E6E6;" points="446.714,190.057 442.379,190.057 442.379,160.596 446.714,157.762 				"/>
				<path style="fill:#EBEBEB;" d="M73.111,229.222H56.556c-5.952,0-10.778,4.825-10.778,10.778v69.887h27.333V229.222z"/>
				<rect x="137.757" y="232.05" style="fill:#EBEBEB;" width="36.306" height="77.837"/>
				<polygon style="fill:#EBEBEB;" points="257.256,244.111 220.949,232.05 220.949,309.887 257.256,309.887 				"/>
				<polygon style="fill:#E6E6E6;" points="271.01,244.111 234.704,232.05 234.704,309.887 271.01,309.887 				"/>
				<polygon style="fill:#F0F0F0;" points="271.01,231.755 307.316,219.695 307.316,309.887 271.01,309.887 				"/>
			</g>
			<g>
				<polygon style="opacity:0.5;fill:#FFFFFF;" points="110.85,309.884 73.417,309.884 150.566,38.144 187.999,38.144 				"/>
				<polygon style="opacity:0.5;fill:#FFFFFF;" points="223.048,309.884 185.615,309.884 262.764,38.144 300.197,38.144 				"/>
				<polygon style="opacity:0.5;fill:#FFFFFF;" points="269.903,309.884 232.47,309.884 309.618,38.144 347.051,38.144 				"/>
				<polygon style="opacity:0.5;fill:#FFFFFF;" points="360.003,309.884 341.286,309.884 418.435,38.144 437.151,38.144 				"/>
			</g>
		</g>
		<g>
			<path style="fill:#FAFAFA;" d="M110.836,332.967c10.807-57.917,39.267-85.099,63.487-98.936
				C151.12,255.977,135.344,331.907,110.836,332.967z"/>
			<path style="fill:#FAFAFA;" d="M87.173,328.445c-7.953-43.664-27.232-60.748-43.516-68.026
				C59.373,274.18,70.868,331.189,87.173,328.445z"/>
			<path style="fill:#FAFAFA;" d="M101.146,340.016c-3.071-62.8-26.981-90.369-48.501-103.611
				C72.164,258.646,77.736,340.846,101.146,340.016z"/>
			<path style="fill:#FAFAFA;" d="M101.146,334.614c4.993-63.107,31.686-92.635,55.406-107.628
				C134.766,250.825,126.547,333.553,101.146,334.614z"/>
			<path style="fill:#FAFAFA;" d="M105.086,344.479c8.018-64.822-9.686-103.882-27.63-127.358
				C91.956,248.74,82.92,334.316,105.086,344.479z"/>
			<path style="fill:#FAFAFA;" d="M129.962,324.763c20.233-37.793,45.554-46.766,65.029-47.687
				C174.395,284.237,146.782,333.181,129.962,324.763z"/>
			<path style="fill:#FAFAFA;" d="M125.812,326.191c12.732-42.788,36.823-60.961,56.626-69.418
				C162.813,271.428,144.876,327.392,125.812,326.191z"/>
			<path style="fill:#FAFAFA;" d="M103.466,344.694c21.762-67.114,11.935-108.491-1.406-133.665
				C110.187,244.531,83.035,333.197,103.466,344.694z"/>
			<path style="fill:#F5F5F5;" d="M66.546,320.555v42.222c0,10.791,19.477,19.621,43.282,19.621h0.001
				c23.805,0,43.282-8.829,43.282-19.621v-42.222H66.546z"/>
		</g>
		<g>
			<path style="fill:#E0E0E0;" d="M400.043,348.456c-2.397-39.827-19.541-58.52-34.934-68.035
				C379.105,295.513,383.349,347.726,400.043,348.456z"/>
			<path style="fill:#E0E0E0;" d="M416.641,345.347c9.22-30.025,23.901-41.773,35.683-46.777
				C440.371,308.032,427.572,347.234,416.641,345.347z"/>
			<path style="fill:#E0E0E0;" d="M406.071,353.303c7.53-43.184,26.288-62.142,42.172-71.247
				C432.952,297.35,422.033,353.875,406.071,353.303z"/>
			<path style="fill:#E0E0E0;" d="M406.538,349.588c2.034-43.396-13.697-63.701-28.648-74.012
				C390.751,291.97,389.233,348.858,406.538,349.588z"/>
			<path style="fill:#E0E0E0;" d="M402.987,356.372c0.11-44.575,15.61-71.434,29.929-87.578
				C420.253,290.537,419.047,349.384,402.987,356.372z"/>
			<path style="fill:#E0E0E0;" d="M387.652,342.814c-10.592-25.989-27.159-32.16-40.418-32.793
				C360.722,314.945,375.405,348.602,387.652,342.814z"/>
			<path style="fill:#E0E0E0;" d="M390.371,343.796c-5.023-29.423-19.953-41.921-32.785-47.736
				C369.762,306.138,377.211,344.621,390.371,343.796z"/>
			<path style="fill:#E0E0E0;" d="M404.078,356.52c-9.106-46.151,1.2-74.604,12.513-91.915
				C408.13,287.643,419.065,348.615,404.078,356.52z"/>
			<path style="fill:#F5F5F5;" d="M429.255,339.957v28.976c0,7.406-13.367,13.465-29.704,13.465h-0.001
				c-16.337,0-29.704-6.059-29.704-13.465v-28.976H429.255z"/>
		</g>
	</g>
</g>
<g id="Background_Simple" style="display:none;">
	<g style="display:inline;">
		<path style="fill:#407BFF;" d="M153.423,313.883c71.426,35.283,156.826-37.658,198.165-89.827
			c19.374-24.449,38.782-55.605,32.193-88.15C376.509,99.987,342.806,72.471,306,76.08c-49.414,4.846-41.637,41.878-55.536,76.908
			c-15.816,39.859-44.16,16.45-76.339,16.423C94.771,169.343,91.408,283.248,153.423,313.883z M146.474,225.576
			c-0.016,0.013-0.045,0.035-0.094,0.074C146.424,225.616,146.456,225.59,146.474,225.576z M145.326,226.474
			c-0.031,0.024-0.063,0.049-0.089,0.069C145.264,226.522,145.294,226.498,145.326,226.474z M145.055,226.685
			C145.035,226.701,145.036,226.701,145.055,226.685L145.055,226.685z M145.195,226.576c-0.068,0.053-0.111,0.087-0.133,0.104
			C145.086,226.661,145.134,226.624,145.195,226.576z"/>
		<path style="opacity:0.9;fill:#FFFFFF;" d="M153.423,313.883c71.426,35.283,156.826-37.658,198.165-89.827
			c19.374-24.449,38.782-55.605,32.193-88.15C376.509,99.987,342.806,72.471,306,76.08c-49.414,4.846-41.637,41.878-55.536,76.908
			c-15.816,39.859-44.16,16.45-76.339,16.423C94.771,169.343,91.408,283.248,153.423,313.883z M146.474,225.576
			c-0.016,0.013-0.045,0.035-0.094,0.074C146.424,225.616,146.456,225.59,146.474,225.576z M145.326,226.474
			c-0.031,0.024-0.063,0.049-0.089,0.069C145.264,226.522,145.294,226.498,145.326,226.474z M145.055,226.685
			C145.035,226.701,145.036,226.701,145.055,226.685L145.055,226.685z M145.195,226.576c-0.068,0.053-0.111,0.087-0.133,0.104
			C145.086,226.661,145.134,226.624,145.195,226.576z"/>
	</g>
</g>
<g id="Shadow_1_">
	<ellipse id="_x3C_Path_x3E__344_" style="fill:#F5F5F5;" cx="250" cy="416.238" rx="193.889" ry="11.323"/>
</g>
<g id="Contract">
	<g>
		<g>
			<g>
				<path style="fill:#FFFFFF;" d="M266.95,128.885v13.154c0,1.92-1.571,3.491-3.491,3.491h-32.123c-1.92,0-3.491-1.571-3.491-3.491
					V94.473c0-1.92,1.571-3.491,3.491-3.491h32.123c1.92,0,3.491,1.571,3.491,3.491v20.734"/>
				<path style="fill:#407BFF;" d="M263.46,146.056h-32.123c-2.215,0-4.017-1.802-4.017-4.016V94.473
					c0-2.215,1.802-4.017,4.017-4.017h32.123c2.215,0,4.016,1.802,4.016,4.017v20.734h-1.052V94.473c0-1.635-1.33-2.965-2.964-2.965
					h-32.123c-1.635,0-2.965,1.331-2.965,2.965v47.566c0,1.635,1.33,2.964,2.965,2.964h32.123c1.635,0,2.964-1.33,2.964-2.964
					v-13.154h1.052v13.154C267.476,144.253,265.675,146.056,263.46,146.056z"/>
			</g>
			<path style="fill:#E0E0E0;" d="M244.975,138.966c0.662-0.404,1.339-0.788,2.048-1.104c0.339-0.151,0.686-0.283,1.04-0.395
				c0.353-0.111,0.799-0.288,1.173-0.264c-0.136-0.078-0.273-0.156-0.409-0.235c-0.069-0.109-0.105,0.175-0.127,0.236
				c-0.042,0.119-0.092,0.235-0.14,0.351c-0.103,0.253-0.218,0.513-0.255,0.786c-0.062,0.444,0.187,0.781,0.65,0.773
				c1.076-0.02,2.005-0.75,2.944-1.152c-0.122,0.016-0.243,0.032-0.365,0.048c0.104,0.029,0.231,0.15,0.345,0.19
				c0.163,0.058,0.335,0.087,0.508,0.098c0.393,0.025,0.78-0.064,1.174-0.026c0.607,0.058,0.603-0.89,0-0.948
				c-0.409-0.039-0.838,0.092-1.241,0.014c-0.379-0.074-0.518-0.372-0.937-0.178c-0.399,0.185-0.758,0.441-1.169,0.611
				c-0.192,0.079-0.388,0.149-0.586,0.211c-0.124,0.039-0.249,0.075-0.375,0.107c-0.115,0.03-0.312,0.006-0.15,0.154
				c0.046,0.112,0.093,0.223,0.139,0.335c-0.033-0.642,0.68-1.243,0.497-1.904c-0.185-0.667-1.02-0.372-1.484-0.251
				c-1.341,0.35-2.581,1.005-3.758,1.722C243.977,138.465,244.452,139.285,244.975,138.966L244.975,138.966z"/>
			<rect x="231.574" y="98.088" style="fill:#E0E0E0;" width="31.647" height="1.052"/>
			<rect x="231.574" y="105.545" style="fill:#E0E0E0;" width="28.069" height="1.052"/>
			<rect x="231.574" y="113" style="fill:#E0E0E0;" width="31.647" height="1.052"/>
			<rect x="231.574" y="120.457" style="fill:#E0E0E0;" width="8.697" height="1.052"/>
			<rect x="243.92" y="120.457" style="fill:#E0E0E0;" width="11.574" height="1.052"/>
			<rect x="231.574" y="127.913" style="fill:#E0E0E0;" width="31.647" height="1.052"/>
			<path style="fill:#407BFF;" d="M235.923,141.23c-2.688,0-4.874-2.188-4.874-4.876c0-2.688,2.187-4.874,4.874-4.874
				s4.875,2.186,4.875,4.874C240.798,139.042,238.611,141.23,235.923,141.23z M235.923,132.532c-2.107,0-3.822,1.715-3.822,3.822
				c0,2.108,1.715,3.823,3.822,3.823c2.108,0,3.823-1.715,3.823-3.823C239.746,134.247,238.031,132.532,235.923,132.532z"/>
			<path style="fill:#407BFF;" d="M238.801,136.355c0,1.589-1.288,2.877-2.877,2.877c-1.589,0-2.877-1.288-2.877-2.877
				c0-1.589,1.288-2.877,2.877-2.877C237.512,133.477,238.801,134.765,238.801,136.355z"/>
			<path style="fill:#407BFF;" d="M255.081,135.492c0.169-1.52,0.729-2.729,1.422-3.833c0.715-1.087,1.59-2.046,2.387-3.067
				c1.614-2.027,3.283-4.01,4.956-5.99c3.384-3.93,6.818-7.82,10.556-11.469c0.21-0.205,0.545-0.201,0.75,0.009
				c0.172,0.177,0.196,0.443,0.074,0.645c-2.702,4.471-5.709,8.7-8.766,12.89c-1.547,2.08-3.099,4.156-4.704,6.19
				c-0.813,1.009-1.548,2.079-2.443,3.023c-0.918,0.925-1.968,1.746-3.409,2.257c-0.323,0.114-0.678-0.055-0.792-0.378
				C255.081,135.677,255.072,135.581,255.081,135.492z"/>
		</g>
		<g>
			
				<rect x="250.365" y="173.661" transform="matrix(0.7537 -0.6572 0.6572 0.7537 -51.7424 210.2971)" style="fill:#407BFF;" width="8.715" height="1.052"/>
			
				<rect x="242.629" y="167.831" transform="matrix(0.2187 -0.9758 0.9758 0.2187 30.242 374.4855)" style="fill:#407BFF;" width="12.708" height="1.052"/>
			
				<rect x="240.974" y="171.154" transform="matrix(0.7299 -0.6836 0.6836 0.7299 -53.5905 212.0295)" style="fill:#407BFF;" width="1.052" height="5.345"/>
		</g>
	</g>
</g>
<g id="Character_2">
	<g>
		<polygon style="fill:#7F3E3B;" points="317.056,408.287 308.551,408.287 307.505,388.591 316.011,388.591 		"/>
		<polygon style="fill:#7F3E3B;" points="359.959,408.287 351.453,408.287 348.118,388.591 356.624,388.591 		"/>
		<path style="fill:#263238;" d="M350.896,407.302h9.555c0.348,0,0.637,0.242,0.697,0.581l1.319,7.56
			c0.137,0.784-0.515,1.526-1.318,1.513c-3.333-0.057-4.944-0.253-9.147-0.253c-2.585,0-9.558,0.269-13.128,0.269
			c-3.492,0-3.868-3.53-2.391-3.85c6.622-1.434,10.818-3.41,13.006-5.296C349.885,407.485,350.387,407.302,350.896,407.302z"/>
		<path style="fill:#263238;" d="M308.335,407.302h9.288c0.348,0,0.637,0.242,0.697,0.581l1.319,7.56
			c0.137,0.784-0.494,1.527-1.296,1.513c-3.348-0.057-8.18-0.253-12.392-0.253c-4.924,0-6.175,0.269-11.949,0.269
			c-3.492,0-4.292-3.53-2.816-3.85c6.723-1.455,9.149-1.611,15.068-5.157C306.898,407.58,307.601,407.302,308.335,407.302z"/>
		<path style="fill:#7F3E3B;" d="M308.07,143.406l-11.621-3.394c0,0-11.843,28.126-15.85,29.965
			c-5.452,2.502-20.011,10.175-26.162,13.798c-0.422,1.384-0.425,5.193,0.243,6.3c10.094-0.805,30.794-7.653,34.774-11.47
			C298.531,169.902,308.07,143.406,308.07,143.406z"/>
		<path style="fill:#407BFF;" d="M311.589,138.101c3.303,7.356-19.355,39.634-19.355,39.634l-11.019-11.418
			c0,0,9.731-24.423,14.99-33.801C301.605,122.888,307.965,130.029,311.589,138.101z"/>
		<path style="opacity:0.4;fill:#FFFFFF;" d="M311.589,138.101c3.303,7.356-19.355,39.634-19.355,39.634l-11.019-11.418
			c0,0,9.731-24.423,14.99-33.801C301.605,122.888,307.965,130.029,311.589,138.101z"/>
		<path style="fill:#407BFF;" d="M280.425,165.314c-0.689,0.405-2.165,3.1-2.499,4.434c-0.334,1.334,7.418,11.68,10.425,11.26
			c3.007-0.42,6.449-3.346,7.067-4.927C296.035,174.499,281.883,164.456,280.425,165.314z"/>
		<path style="fill:#7F3E3B;" d="M255.729,183.146l-7.051-1.271l0.423,10.038c0,0,2.463,0.993,7.762-2.288L255.729,183.146z"/>
		<polygon style="fill:#7F3E3B;" points="240.272,185.201 241.548,191.347 249.101,191.913 248.678,181.875 		"/>
		<g>
			<polygon style="opacity:0.2;" points="307.508,388.596 308.045,398.749 316.554,398.749 316.016,388.596 			"/>
			<polygon style="opacity:0.2;" points="356.626,388.596 348.118,388.596 349.841,398.749 358.35,398.749 			"/>
		</g>
		<path style="fill:#407BFF;" d="M300.779,128.055c0,0-11.346,29.227-4.094,77.058c13.707,0,38.822,0,45.492,0
			c0.647-6.983-2.033-44.592,6.272-77.497c0,0-7.723-1.565-15.137-1.923c-5.799-0.28-14.206-0.466-19.339,0.001
			C307.208,126.309,300.779,128.055,300.779,128.055z"/>
		<path style="opacity:0.2;" d="M300.779,128.055c0,0-11.346,29.227-4.094,77.058c13.707,0,38.822,0,45.492,0
			c0.647-6.983-2.033-44.592,6.272-77.497c0,0-7.723-1.565-15.137-1.923c-5.799-0.28-14.206-0.466-19.339,0.001
			C307.208,126.309,300.779,128.055,300.779,128.055z"/>
		<path style="opacity:0.2;" d="M338.18,135.741c-1.016,5.415,0.074,18.372,4.517,33.343c0.566-11.523,1.896-24.882,4.965-38.193
			l0.003-0.064C344.682,130.52,339.148,130.665,338.18,135.741z"/>
		<path style="fill:#7F3E3B;" d="M331.648,107.608c-1.517,6.222-2.491,13.934,1.665,18.086c0,0-2.802,6.312-14.363,6.312
			c-10.565,0-4.975-6.311-4.975-6.311c7.018-1.657,7.065-10.238,6.087-15.072L331.648,107.608z"/>
		<path style="fill:#407BFF;" d="M318.957,132.006c6.815,2.129,8.168,4.315,8.168,4.315s8.482-3.447,8.163-10.931
			c0,0-1.53-1.171-3.322-1.918C331.966,123.471,331.289,129.008,318.957,132.006z"/>
		<path style="fill:#407BFF;" d="M318.957,132.006c-3.819,0.365-7.039,3.635-7.039,3.635s-2.424-2.547-0.101-9.946
			c0,0,2.277-0.776,4.151-1.179C315.968,124.516,314.466,130.404,318.957,132.006z"/>
		<path style="opacity:0.2;" d="M320.056,110.627c0.585,2.832,0.806,6.953-0.534,10.215c1.029-0.151,2.089-0.464,3.145-0.952
			c4-1.846,6.066-4.748,8.28-9.055c0.203-1.103,0.441-2.183,0.699-3.228L320.056,110.627z"/>
		<path style="fill:#263238;" d="M318.711,87.734c-2.718,0.889-8.8,6.101-3.044,8.739C321.423,99.111,323.445,86.186,318.711,87.734
			z"/>
		<path style="fill:#7F3E3B;" d="M337.058,100.024c-2.648,8.157-3.792,13.047-9,16.392c-7.833,5.032-16.879-0.945-16.673-9.62
			c0.186-7.808,4.486-19.835,13.296-21.386C333.361,83.882,339.707,91.867,337.058,100.024z"/>
		<path style="fill:#263238;" d="M324.281,91.066c-4.501,0.76-8.252,0.526-9.615-3.215c-1.363-3.741,4.833-7.657,9.1-5.904
			c3.156-3.273,11.749-0.76,12.86,2.397c5.027-0.322,9.732,5.433,6.342,8.388c2.572,1.494,4.355,6.078,1.023,9.308
			c1.461,4.341-3.799,8.666-7.952,6.913c-4.089-1.228-6.318-0.219-6.887-2.865c-0.534-2.483,0.868-5.187,4.347-5.698
			c-1.758-2.104-2.192-5.422-0.965-6.847C328.268,95.45,324.819,93.054,324.281,91.066z"/>
		<path style="fill:#263238;" d="M318.879,108.655c2.684,0.212,4.355-1.345,4.431-1.418c0.081-0.077,0.086-0.204,0.01-0.284
			c-0.075-0.08-0.202-0.081-0.284-0.004c-0.019,0.018-1.92,1.794-4.858,1.201c-0.109-0.023-0.216,0.049-0.24,0.158
			c-0.025,0.109,0.044,0.215,0.152,0.236C318.362,108.599,318.625,108.635,318.879,108.655z"/>
		<path style="fill:#7F3E3B;" d="M337.527,111.266c-1.828,1.445-4.117,1.946-5.97,1.738c-2.787-0.314-3.005-3.063-1.246-5.147
			c1.583-1.876,4.941-3.973,7.265-2.614C339.865,106.583,339.617,109.614,337.527,111.266z"/>
		<path style="fill:#407BFF;" d="M326.586,205.113c0,0-1.154,10.691-2.639,25.191c-1.693,16.426-3.801,37.751-5.142,54.003
			c-0.002,0.082-0.015,0.151-0.017,0.221c-0.257,3.088-0.487,5.978-0.676,8.625c-1.903,26.503,1.494,103.631,1.494,103.631h-14.406
			c0,0-13.275-78.707-12.951-105.686c0.311-25.934,4.433-85.985,4.433-85.985H326.586z"/>
		<path style="fill:#263238;" d="M320.799,391.144c0.067,0-0.253,5.932-0.253,5.932h-16.607l-0.418-6.513L320.799,391.144z"/>
		<path style="opacity:0.2;" d="M323.946,230.305c-1.693,16.426-3.801,37.751-5.142,54.003c-0.002,0.082-0.015,0.151-0.017,0.221
			c-3.172-15.405-4.155-34.571-2.924-66.123L323.946,230.305z"/>
		<path style="fill:#407BFF;" d="M312.823,205.113c0,0,6.633,61.457,10.77,85.808c4.53,26.667,22.377,105.861,22.377,105.861h15.578
			c0,0-10.503-77.042-12.555-103.444c-2.226-28.655-6.816-88.225-6.816-88.225H312.823z"/>
		<path style="fill:#263238;" d="M361.771,391.499c0.067,0,0.54,5.578,0.54,5.578h-17.123l-1.249-6.223L361.771,391.499z"/>
		<path style="fill:#263238;" d="M322.928,99.64c-0.175,0.673-0.668,1.142-1.1,1.047c-0.433-0.095-0.641-0.717-0.466-1.39
			c0.175-0.673,0.668-1.142,1.1-1.048C322.895,98.345,323.103,98.967,322.928,99.64z"/>
		<path style="fill:#263238;" d="M315.449,98.006c-0.175,0.673-0.667,1.142-1.1,1.047c-0.432-0.094-0.641-0.717-0.466-1.39
			c0.175-0.673,0.668-1.142,1.1-1.047C315.416,96.711,315.625,97.333,315.449,98.006z"/>
		<path style="fill:#630F0F;" d="M318.943,98.86c0,0-2.514,3.554-4.658,5.065c0.882,1.367,3.004,1.294,3.004,1.294L318.943,98.86z"
			/>
		<path style="fill:#263238;" d="M327.023,97.679c-0.118-0.026-0.22-0.105-0.269-0.224c-0.681-1.634-2.131-1.863-2.146-1.863
			c-0.206-0.021-0.361-0.236-0.32-0.457c0.041-0.221,0.252-0.375,0.47-0.343c0.077,0.01,1.895,0.293,2.739,2.323
			c0.084,0.203-0.014,0.443-0.219,0.537C327.194,97.689,327.105,97.697,327.023,97.679z"/>
		<path style="fill:#263238;" d="M313.995,94.576c-0.056-0.016-0.109-0.045-0.154-0.088c-0.159-0.148-0.161-0.403-0.006-0.57
			c1.555-1.67,3.378-1.413,3.455-1.402c0.214,0.024,0.359,0.238,0.316,0.46c-0.043,0.22-0.253,0.372-0.47,0.34l0,0
			c-0.061-0.009-1.485-0.194-2.726,1.139C314.298,94.575,314.136,94.616,313.995,94.576z"/>
		<path style="fill:#7F3E3B;" d="M353.495,139.233l-10.746,6.495c0,0,12.033,26.006,11.928,30.372
			c-0.197,8.16,3.316,25.85,2.367,35.17c1.321,0.472,5.031,0.582,6.153-0.071c2.136-8.433,5.084-30.578,4.23-36.126
			C365.572,163.031,353.495,139.233,353.495,139.233z"/>
		<path style="fill:#407BFF;" d="M348.45,127.617c7.991,1.17,19.401,41.775,19.401,41.775l-14.805,5.583
			c0,0-12.887-22.019-16.087-31.868C333.605,132.789,339.879,126.362,348.45,127.617z"/>
		<path style="opacity:0.4;fill:#FFFFFF;" d="M348.45,127.617c7.991,1.17,19.401,41.775,19.401,41.775l-14.805,5.583
			c0,0-12.887-22.019-16.087-31.868C333.605,132.789,339.879,126.362,348.45,127.617z"/>
		<path style="fill:#407BFF;" d="M348.012,408.787c-0.648,0-1.247-0.11-1.617-0.433c-0.293-0.257-0.416-0.615-0.366-1.065
			c0.036-0.335,0.222-0.494,0.372-0.57c0.954-0.482,3.626,1.202,3.928,1.396c0.066,0.044,0.099,0.124,0.082,0.205
			c-0.017,0.079-0.08,0.143-0.16,0.162C349.655,408.625,348.798,408.787,348.012,408.787z M346.833,407.028
			c-0.105,0-0.194,0.016-0.264,0.05c-0.056,0.028-0.121,0.08-0.138,0.236c-0.036,0.321,0.042,0.56,0.238,0.732
			c0.445,0.392,1.554,0.444,3.012,0.153C348.748,407.643,347.484,407.028,346.833,407.028z"/>
		<path style="fill:#407BFF;" d="M350.205,408.488c-0.033,0-0.066-0.008-0.095-0.024c-0.858-0.478-2.47-2.342-2.245-3.291
			c0.04-0.172,0.181-0.469,0.666-0.527c0.318-0.039,0.599,0.049,0.845,0.258c0.95,0.807,1.036,3.262,1.039,3.366
			c0.003,0.074-0.036,0.145-0.1,0.184C350.282,408.477,350.243,408.488,350.205,408.488z M348.653,405.04
			c-0.03,0-0.06,0.003-0.092,0.006c-0.263,0.031-0.292,0.153-0.304,0.203c-0.134,0.56,0.883,1.969,1.727,2.633
			c-0.065-0.718-0.268-2.148-0.877-2.666C348.968,405.099,348.819,405.04,348.653,405.04z"/>
		<path style="fill:#407BFF;" d="M304.727,408.789c-0.844,0-1.619-0.131-2.042-0.522c-0.269-0.249-0.38-0.579-0.33-0.98
			c0.03-0.239,0.153-0.425,0.358-0.535c1.059-0.581,4.396,1.157,4.774,1.357c0.074,0.039,0.113,0.123,0.096,0.208
			c-0.016,0.085-0.083,0.153-0.168,0.17C306.687,408.629,305.664,408.789,304.727,408.789z M303.271,407.028
			c-0.156,0-0.286,0.024-0.38,0.074c-0.082,0.046-0.124,0.11-0.137,0.216c-0.033,0.272,0.036,0.485,0.212,0.648
			c0.501,0.464,1.897,0.543,3.79,0.231C305.607,407.637,304.076,407.028,303.271,407.028z"/>
		<path style="fill:#407BFF;" d="M307.375,408.488c-0.028,0-0.056-0.006-0.082-0.017c-1.004-0.461-2.951-2.299-2.749-3.262
			c0.047-0.225,0.221-0.507,0.777-0.562c0.406-0.05,0.783,0.074,1.101,0.345c1.04,0.889,1.159,3.179,1.164,3.277
			c0.003,0.071-0.032,0.14-0.092,0.182C307.458,408.476,307.417,408.488,307.375,408.488z M305.465,405.04
			c-0.039,0-0.08,0.003-0.122,0.006c-0.365,0.038-0.394,0.179-0.404,0.227c-0.12,0.578,1.192,2.022,2.21,2.652
			c-0.077-0.669-0.315-2.04-0.997-2.622C305.946,405.127,305.72,405.04,305.465,405.04z"/>
		<g>
			<g>
				<path style="fill:#263238;" d="M388.083,260.934l-51.119,6.671c-2.231,0.291-4.295-1.296-4.586-3.527l-4.354-33.37
					c-0.291-2.231,1.296-4.295,3.527-4.586l51.119-6.671c2.231-0.291,4.295,1.296,4.586,3.528l4.355,33.37
					C391.902,258.579,390.314,260.642,388.083,260.934z"/>
				<path style="opacity:0.3;" d="M388.083,260.934l-51.119,6.671c-2.231,0.291-4.295-1.296-4.586-3.527l-4.354-33.37
					c-0.291-2.231,1.296-4.295,3.527-4.586l51.119-6.671c2.231-0.291,4.295,1.296,4.586,3.528l4.355,33.37
					C391.902,258.579,390.314,260.642,388.083,260.934z"/>
			</g>
			<path style="fill:#263238;" d="M354.694,230.516c-0.851,0-1.675-0.28-2.363-0.809c-0.825-0.635-1.353-1.549-1.487-2.576
				l-0.906-6.939c-0.277-2.125,1.226-4.08,3.352-4.358l11.554-1.507c1.03-0.131,2.046,0.142,2.87,0.776
				c0.825,0.635,1.353,1.549,1.487,2.576l0.905,6.939c0.277,2.125-1.226,4.08-3.351,4.358l0,0l-11.554,1.507
				C355.032,230.505,354.862,230.516,354.694,230.516z M365.346,216.553c-0.07,0-0.14,0.005-0.211,0.014l-11.554,1.507
				c-0.89,0.116-1.52,0.935-1.404,1.826l0.906,6.939c0.056,0.428,0.277,0.811,0.624,1.077c0.347,0.267,0.772,0.384,1.202,0.327
				l11.554-1.507c0.89-0.116,1.52-0.935,1.404-1.826l-0.906-6.939c-0.055-0.428-0.277-0.811-0.624-1.077
				C366.048,216.671,365.702,216.553,365.346,216.553z M366.609,227.856h0.01H366.609z"/>
			<path style="fill:#263238;" d="M392.943,260.299l-51.119,6.671c-2.231,0.291-4.295-1.296-4.586-3.528l-4.355-33.37
				c-0.291-2.231,1.296-4.295,3.528-4.586l51.119-6.671c2.231-0.291,4.295,1.296,4.586,3.527l4.354,33.37
				C396.762,257.944,395.174,260.008,392.943,260.299z"/>
		</g>
		<path style="fill:#7F3E3B;" d="M357.524,209.865l-3.267,6.359l9.568,0.438c0,0,2.46-4.367-1.241-8.578L357.524,209.865z"/>
		<path style="fill:#7F3E3B;" d="M357.913,221.137l5.693-0.782l0.219-3.693l-9.568-0.438l0.149,2.071
			C354.534,220.077,356.142,221.38,357.913,221.137z"/>
		<path style="fill:#407BFF;" d="M350.819,172.685c-0.148,0.786,0.91,3.67,1.694,4.799c0.784,1.129,13.676,2.102,15.339-0.439
			c1.662-2.541,1.725-7.058,0.941-8.563C368.008,166.977,351.132,171.023,350.819,172.685z"/>
	</g>
</g>
<g id="Character_1">
	<g>
		<path style="fill:#263238;" d="M162.384,141.484c-1.611,2.103-3.365,4.414-4.97,6.683c-1.611,2.297-3.227,4.587-4.734,6.927
			c-3.032,4.648-5.842,9.444-7.814,14.207c-0.241,0.592-0.475,1.184-0.677,1.768c-0.112,0.295-0.206,0.585-0.295,0.874l-0.139,0.435
			l-0.067,0.21l-0.015,0.06c-0.137,0.289-0.214,1.27-0.108,2.344c0.22,2.209,0.942,4.822,1.767,7.391
			c1.71,5.165,3.968,10.503,6.253,15.667l-5.117,3.239c-3.809-4.756-7.112-9.696-9.908-15.276c-1.373-2.815-2.643-5.717-3.43-9.255
			c-0.368-1.789-0.665-3.764-0.241-6.341l0.085-0.477l0.074-0.317l0.148-0.619c0.097-0.415,0.199-0.826,0.316-1.223
			c0.217-0.81,0.463-1.593,0.717-2.37c2.094-6.166,4.998-11.6,8.143-16.811c1.599-2.587,3.241-5.127,5.005-7.577
			c1.777-2.471,3.503-4.835,5.54-7.272L162.384,141.484z"/>
		<path style="fill:#FFC3BD;" d="M150.215,196.199l5.265,2.795l-6.052,7.087c0,0-3.778-2.556-3.949-6.459L150.215,196.199z"/>
		<polygon style="fill:#FFC3BD;" points="162.565,203.363 156.079,208.509 149.428,206.081 155.48,198.994 		"/>
		<path style="fill:#FFC3BD;" d="M241.18,181.02l6.219,3.208l-0.548,2.244l-5.027,5.014c0,0-3.605-2.795-3.523-6.701L241.18,181.02z
			"/>
		<polygon style="fill:#FFC3BD;" points="242.082,181.875 247.775,180.809 251.439,182.372 248.998,182.786 247.398,184.228 		"/>
		<path style="fill:#FFC3BD;" d="M253.632,192.193l-6.185,1.326c-0.646,0.138-1.32,0.057-1.915-0.232l-3.709-1.8l5.027-5.014
			l3.305-1.035l4.144,4.748C254.915,190.89,254.547,191.997,253.632,192.193z"/>
		<path style="fill:#263238;" d="M185.169,100.937c0.136,0.671,0.603,1.143,1.041,1.054c0.439-0.089,0.684-0.705,0.547-1.377
			c-0.136-0.671-0.603-1.143-1.041-1.054C185.277,99.649,185.032,100.266,185.169,100.937z"/>
		<path style="fill:#FF5652;" d="M185.71,102.092c0,0,2.313,3.562,4.373,5.089c-0.962,1.35-3.084,1.253-3.084,1.253L185.71,102.092z
			"/>
		<path style="fill:#263238;" d="M181.954,97.709c-0.098,0-0.196-0.035-0.273-0.107c-0.163-0.151-0.173-0.405-0.022-0.568
			c1.51-1.634,3.343-1.344,3.422-1.331c0.219,0.037,0.366,0.245,0.329,0.464c-0.038,0.219-0.248,0.365-0.462,0.329l0,0
			c-0.06-0.01-1.493-0.22-2.698,1.084C182.17,97.666,182.062,97.709,181.954,97.709z"/>
		<path style="fill:#FFC3BD;" d="M167.009,112.789c1.157,5.9,1.855,14.075-2.273,18.012c0,0,1.613,5.985,12.577,5.985
			c12.056,0,5.799-5.253,5.799-5.253c-5.01-1.555-4.967-7.263-3.821-11.848L167.009,112.789z"/>
		<path style="fill:#407BFF;" d="M162.956,134.831c-0.984-1.58-0.662-6.373,0.531-7.153c1.926-1.259,9.847-1.114,20.35,1.952
			c-1.416,4.578,0.897,7.156,0.897,7.156L162.956,134.831z"/>
		<path style="opacity:0.2;" d="M154.198,143.325c-3.746,3.693-4.84,11.279-4.43,16.445c0.926-1.568,1.904-3.135,2.914-4.672
			c1.505-2.346,3.114-4.64,4.735-6.934c0.453-0.631,0.915-1.273,1.378-1.915c0.095-0.41,0.179-0.821,0.253-1.221L154.198,143.325z"
			/>
		<path style="fill:#407BFF;" d="M127.645,406.968c0.809,0.175,1.618,0.221,2.008-0.11c0.163-0.139,0.328-0.406,0.185-0.887
			c-0.075-0.253-0.241-0.442-0.492-0.562c-1.089-0.52-3.592,0.5-3.698,0.544c-0.069,0.029-0.116,0.096-0.118,0.171
			c-0.003,0.075,0.04,0.145,0.107,0.178C126.02,406.486,126.832,406.792,127.645,406.968z M128.957,405.68
			c0.082,0.018,0.158,0.042,0.224,0.074c0.152,0.073,0.246,0.179,0.29,0.326c0.102,0.344-0.025,0.452-0.067,0.488
			c-0.434,0.369-2.044,0.029-3.179-0.425C126.995,405.871,128.24,405.524,128.957,405.68z"/>
		<path style="fill:#407BFF;" d="M125.68,406.316c0.03,0.007,0.063,0.006,0.094-0.004c0.912-0.266,2.863-1.652,2.886-2.567
			c0.004-0.166-0.054-0.467-0.489-0.618c-0.283-0.098-0.566-0.075-0.847,0.068c-1.078,0.55-1.759,2.784-1.787,2.879
			c-0.02,0.067-0.002,0.14,0.047,0.19C125.612,406.29,125.644,406.308,125.68,406.316z M127.963,403.465
			c0.028,0.006,0.056,0.014,0.084,0.024c0.236,0.082,0.233,0.198,0.232,0.248c-0.013,0.541-1.301,1.628-2.245,2.068
			c0.236-0.645,0.775-1.916,1.466-2.268C127.657,403.455,127.809,403.431,127.963,403.465z"/>
		<path style="fill:#407BFF;" d="M187.191,408.322c1.035,0,2.035-0.143,2.37-0.608c0.117-0.163,0.21-0.44-0.016-0.835
			c-0.126-0.222-0.33-0.372-0.605-0.447c-1.342-0.365-4.161,1.241-4.281,1.31c-0.069,0.04-0.106,0.118-0.093,0.196
			c0.013,0.079,0.073,0.141,0.151,0.157C185.232,408.198,186.227,408.322,187.191,408.322z M188.47,406.757
			c0.135,0,0.259,0.014,0.369,0.044c0.176,0.048,0.299,0.135,0.374,0.267c0.135,0.237,0.086,0.355,0.037,0.422
			c-0.375,0.521-2.414,0.533-3.913,0.321C186.085,407.428,187.528,406.757,188.47,406.757z"/>
		<path style="fill:#407BFF;" d="M184.755,408.099c0.027,0,0.053-0.006,0.078-0.017c0.973-0.437,2.902-2.181,2.754-3.093
			c-0.035-0.214-0.186-0.481-0.711-0.534c-0.392-0.04-0.746,0.071-1.059,0.328c-1.026,0.843-1.243,3.015-1.252,3.107
			c-0.006,0.068,0.024,0.134,0.079,0.173C184.677,408.087,184.716,408.099,184.755,408.099z M186.723,404.829
			c0.038,0,0.076,0.002,0.115,0.006c0.344,0.035,0.366,0.17,0.372,0.215c0.089,0.547-1.222,1.918-2.215,2.515
			c0.104-0.634,0.391-1.934,1.065-2.487C186.262,404.911,186.481,404.829,186.723,404.829z"/>
		<polygon style="fill:#FFC3BD;" points="175.886,407.908 183.952,407.908 184.755,389.23 176.689,389.23 		"/>
		<polygon style="fill:#FFC3BD;" points="116.834,404.463 124.612,406.111 131.668,388.238 123.89,386.59 		"/>
		<path style="fill:#263238;" d="M125.33,405.089l-8.856-1.917c-0.322-0.07-0.65,0.094-0.788,0.393l-3.074,6.67
			c-0.319,0.692,0.104,1.503,0.851,1.652c3.103,0.616,4.644,0.76,8.539,1.603c2.396,0.519,7.805,1.836,11.113,2.553
			c3.236,0.701,4.449-2.462,3.159-3.051c-5.786-2.643-8.203-4.971-9.769-7.14C126.222,405.46,125.801,405.191,125.33,405.089z"/>
		<path style="fill:#263238;" d="M183.898,406.974h-8.808c-0.33,0-0.615,0.229-0.687,0.551l-1.593,7.169
			c-0.165,0.743,0.399,1.448,1.16,1.435c3.177-0.054,7.768-0.24,11.762-0.24c4.669,0,6.323,0.255,11.798,0.255
			c3.311,0,4.23-3.347,2.844-3.651c-6.309-1.38-9.082-1.528-14.534-4.89C185.249,407.237,184.594,406.974,183.898,406.974z"/>
		<g>
			<polygon style="opacity:0.2;" points="184.753,389.235 184.34,398.863 176.272,398.863 176.684,389.235 			"/>
			<polygon style="opacity:0.2;" points="123.887,386.594 131.667,388.243 128.026,397.455 120.246,395.806 			"/>
		</g>
		<g>
			<path style="fill:#263238;" d="M181.658,202.752c0,0-9.153,61.637-14.178,84.728c-5.503,25.287-35.009,108.948-35.009,108.948
				l-14.438-3.126c0,0,20.632-68.178,25.251-103.53c3.548-27.155,10.538-87.02,10.538-87.02H181.658z"/>
			<path style="opacity:0.1;fill:#FFFFFF;" d="M181.658,202.752c0,0-9.153,61.637-14.178,84.728
				c-5.503,25.287-35.009,108.948-35.009,108.948l-14.438-3.126c0,0,20.632-68.178,25.251-103.53
				c3.548-27.155,10.538-87.02,10.538-87.02H181.658z"/>
		</g>
		<path style="fill:#263238;" d="M135.928,391.609c0.062,0.013-2.691,5.221-2.691,5.221l-16.244-3.517l1.369-4.883L135.928,391.609z
			"/>
		<path style="opacity:0.3;" d="M175.873,224.713c-10.583,2.075-9.464,41.543-8.19,61.843c3.052-14.349,7.52-41.96,10.572-61.557
			C177.553,224.647,176.762,224.538,175.873,224.713z"/>
		<g>
			<path style="fill:#263238;" d="M196.96,202.752c0,0,1.111,60.302,0.234,84.898c-0.913,25.583-9.848,109.348-9.848,109.348
				h-13.663c0,0-0.501-82.271-1.109-107.396c-0.663-27.391-3.97-86.85-3.97-86.85H196.96z"/>
			<path style="opacity:0.1;fill:#FFFFFF;" d="M196.96,202.752c0,0,1.111,60.302,0.234,84.898
				c-0.913,25.583-9.848,109.348-9.848,109.348h-13.663c0,0-0.501-82.271-1.109-107.396c-0.663-27.391-3.97-86.85-3.97-86.85H196.96
				z"/>
		</g>
		<path style="fill:#263238;" d="M189.975,391.556c0.063,0-0.771,5.672-0.771,5.672h-16.62l-0.449-5.062L189.975,391.556z"/>
		<path style="fill:#263238;" d="M198.063,140.712c1.648,8.713,4.711,33.082-0.076,68.516l-46.674-0.719
			c-0.277-6.184,4.645-39.785,0.096-69.614c-0.542-3.556,1.961-6.87,5.526-7.349c2.363-0.317,5.107-0.614,7.8-0.744
			c5.512-0.266,13.492-0.441,18.338,0.001c2.023,0.185,4.008,0.477,5.777,0.79C193.515,132.417,197.182,136.057,198.063,140.712z"/>
		<path style="opacity:0.2;" d="M199.336,149.368l-7.859,1.954c-0.599,7.34,4.246,15.651,9.079,21.997
			C200.589,163.416,200.014,155.353,199.336,149.368z"/>
		<path style="fill:#263238;" d="M196.109,136.786c1.331,2.39,2.776,4.983,4.248,7.429c1.484,2.469,2.975,4.928,4.535,7.322
			c3.101,4.778,6.406,9.444,10.02,13.326c0.454,0.47,0.906,0.948,1.368,1.382l0.344,0.335l0.261,0.238
			c0.152,0.157,0.411,0.342,0.61,0.516c0.913,0.713,2.034,1.479,3.19,2.206c2.347,1.448,4.864,2.869,7.423,4.242
			c5.12,2.751,10.422,5.452,15.655,8.176l-2.076,5.689c-5.933-1.431-11.693-3.171-17.441-5.304c-2.87-1.078-5.73-2.231-8.61-3.643
			c-1.447-0.717-2.901-1.459-4.424-2.462c-0.395-0.275-0.761-0.499-1.177-0.825l-0.607-0.464l-0.489-0.409
			c-0.664-0.542-1.28-1.102-1.902-1.662c-2.441-2.249-4.584-4.64-6.597-7.076c-2.023-2.43-3.866-4.948-5.644-7.488
			c-1.76-2.552-3.445-5.134-5.016-7.78c-1.577-2.67-3.087-5.253-4.531-8.134L196.109,136.786z"/>
		<path style="fill:#FFC3BD;" d="M162.493,104.064c2.182,8.14,3.045,13.015,8.068,16.4c7.556,5.091,16.964-0.752,17.258-9.38
			c0.265-7.766-3.347-19.773-12.083-21.414C167.13,88.055,160.311,95.924,162.493,104.064z"/>
		<path style="fill:#263238;" d="M179.402,104.16c1.933-2.851,2.674-7.234,1.315-9.338c1.271,0.526,10.434,1.153,6.839-5.364
			c-3.595-6.517-10.785-8.314-17.054-6.517c1.534,0.438,3.052,0.877,3.052,0.877s-8.576-0.614-12.741,2.85
			c1.268,0.073,2.367,0.044,2.367,0.044s-9.178,4.292-5.232,7.58c-6.445,4.91-2.083,11.711,8.545,21.849
			c1.846,1.668,7.084,1.058,8.241,0.061C174.05,111.785,178.306,105.776,179.402,104.16z"/>
		<path style="fill:#263238;" d="M180.476,98.614c1.907,1.381,4.253,5.48,5.348,7.519c1.096,2.039,2.236,1.775,2.784,2.587
			c0.548,0.811,2.806,14.511,0.395,16.703c-2.411,2.192-9.667-1.271-10.609-3.792c-0.943-2.521,0.786-8.702,1.259-10.105
			s0.407-4.932-0.426-7.321C178.394,101.814,180.476,98.614,180.476,98.614z"/>
		<path style="fill:#FFC3BD;" d="M176.198,104.54c0.641,2.112,2.044,4.036,3.652,4.761c2.211,0.997,2.481-1.574,2.051-4.036
			c-0.387-2.217-1.023-3.968-2.793-4.864C177.039,99.354,175.465,102.125,176.198,104.54z"/>
	</g>
</g>
</svg>
